<?xml version="1.0" encoding="UTF-8"?>
<svg width="302px" height="314px" viewBox="0 0 302 314" version="1.1" xmlns="http://www.w3.org/2000/svg" xmlns:xlink="http://www.w3.org/1999/xlink">
    <!-- Generator: Sketch 52.4 (67378) - http://www.bohemiancoding.com/sketch -->
    <title>Group Copy 2</title>
    <desc>Created with Sketch.</desc>
    <g id="Chip" stroke="none" stroke-width="1" fill="none" fill-rule="evenodd">
        <g id="Group-Copy-2" transform="translate(3.000000, 3.000000)">
            <path d="M147.702314,308 C143.801204,305.30268 141.850649,303.95402 141.850649,303.95402 C141.821321,257.654012 141.806656,234.504008 141.806656,234.504008 C137.010044,232.229136 134.611737,231.0917 134.611737,231.0917 C134.331746,219.773381 134.19175,214.114221 134.19175,214.114221 C114.932955,225.782882 105.303558,231.617213 105.303558,231.617213 C79.2225144,216.491374 66.1819926,208.928454 66.1819926,208.928454 C64.4394762,210.215392 63.568218,210.858862 63.568218,210.858862 C59.7687814,208.635718 57.7321959,207.451257 57.4584612,207.305477 C57.3915918,204.331488 57.1342812,202.837636 56.6865296,202.823921 C36.7598223,191.55968 26.7964687,185.92756 26.7964687,185.92756 C27.0350088,214.190442 27.1542789,228.321882 27.1542789,228.321882 C26.443351,230.024999 26.087887,230.876557 26.087887,230.876557 C22.822233,233.767859 21.189406,235.213509 21.189406,235.213509 C17.2800846,231.272358 15.3254238,229.301782 15.3254238,229.301782 C14.9109114,195.841377 14.7036552,179.111175 14.7036552,179.111175 C11.9936824,177.225049 10.6386961,176.281987 10.6386961,176.281987 C3.54623202,152.292181 0,140.297278 0,140.297278 C0.23893122,135.416394 0.358396829,132.975953 0.358396829,132.975953 C6.54167088,114.324356 9.6333079,104.998557 9.6333079,104.998557 C130.018666,34.9995191 190.211345,0 190.211345,0 C254.464682,37.5320528 286.59135,56.2980793 286.59135,56.2980793 C292.863783,75.4375687 296,85.0073134 296,85.0073134 C295.942516,89.5417735 295.913774,91.8090036 295.913774,91.8090036 C291.037778,106.566475 288.59978,113.94521 288.59978,113.94521 C288.522743,136.537175 288.484225,147.833158 288.484225,147.833158 C284.035255,155.201704 281.81077,158.885978 281.81077,158.885978 C281.410336,205.093894 281.210118,228.197852 281.210118,228.197852 C280.717005,230.554235 280.328693,231.84039 280.045182,232.056316 C276.592997,233.952239 274.866905,234.9002 274.866905,234.9002 C270.544244,231.531587 268.382914,229.847281 268.382914,229.847281 C268.438443,184.331427 268.466208,161.573501 268.466208,161.573501 C263.610546,158.530149 261.182716,157.008474 261.182716,157.008474 C261.156516,146.518983 261.143415,141.274238 261.143415,141.274238 C251.066853,147.129731 246.028572,150.057477 246.028572,150.057477 C245.475628,165.603413 245.199156,173.376382 245.199156,173.376382 C241.012971,179.771103 238.919879,182.968464 238.919879,182.968464 C238.505367,229.542397 238.29811,252.829364 238.29811,252.829364 C237.424115,254.972563 236.987117,256.044163 236.987117,256.044163 C233.850509,257.735523 232.282206,258.581203 232.282206,258.581203 C228.659523,256.617877 226.848182,255.636214 226.848182,255.636214 C226.533387,252.534081 226.37599,250.983014 226.37599,250.983014 C226.560956,207.557456 226.65344,185.844678 226.65344,185.844678 C221.44818,182.961606 218.845551,181.52007 218.845551,181.52007 C219.228779,171.131293 219.207662,165.962377 218.782201,166.013321 C208.825299,171.60547 203.846849,174.401544 203.846849,174.401544 C203.636855,189.829132 203.531858,197.542926 203.531858,197.542926 C198.926469,204.831137 196.623774,208.475243 196.623774,208.475243 C196.328141,254.176456 196.180324,277.027063 196.180324,277.027063 C195.43342,279.517469 195.059967,280.762673 195.059967,280.762673 C191.694987,282.756957 190.012496,283.754099 190.012496,283.754099 C186.36596,281.211965 184.542692,279.940897 184.542692,279.940897 C183.993268,277.662107 183.718555,276.522711 183.718555,276.522711 C183.767437,232.334552 183.791877,210.240473 183.791877,210.240473 C178.935043,207.442047 176.506626,206.042835 176.506626,206.042835 C176.536345,195.73988 176.551205,190.588402 176.551205,190.588402 C166.483637,196.272643 161.449853,199.114763 161.449853,199.114763 C161.28483,214.231197 161.202319,221.789415 161.202319,221.789415 C156.668491,229.204595 154.401577,232.912185 154.401577,232.912185 C154.103598,278.875959 153.954608,301.857846 153.954608,301.857846 L153.036619,304.593571 L147.702314,308 Z" id="Path-2" stroke="#FFFFFF" stroke-width="6" stroke-linejoin="round" fill-rule="nonzero"></path>
            <path d="M105.389043,160.988231 L105.353791,161 L65.5549752,137.933592 L73.8743026,133.060224 L73.9095539,133.107299 C74.8730919,132.483564 75.6251215,131.824524 76.1891436,131.141947 C78.2207986,128.599934 77.4581936,125.727225 73.8731275,123.457067 C68.5619185,120.809137 62.475179,120.809137 57.1639701,123.457067 L48.8446427,128.293951 L48.8093914,128.30572 L9.01175046,105.239311 L9,105.205183 L190.489075,0 L286.93687,55.7830489 C290.916822,58.0849587 105.389043,160.988231 105.389043,160.988231 Z M107.010606,130.236943 C107.750885,139.451738 130.934548,139.182237 130.48803,129.673228 C128.995721,121.233983 107.645131,121.292826 107.010606,130.236943 Z" id="path5131" fill-rule="nonzero"></path>
            <path d="M129.993764,130.447293 C130.431083,140.275165 107.723878,140.556135 107,131.02991 C107.621453,121.787089 128.532198,121.726273 129.993764,130.447293 Z" id="path5133" fill-rule="nonzero"></path>
            <polygon id="polygon5135" fill-rule="nonzero" points="233 258.987685 232.964789 259 228 255.995074 228 254 233 257.029557"></polygon>
            <polygon id="polygon5137" fill-rule="nonzero" points="274.964789 234 270 230.995074 270 229 275 232.029557 275 233.987685"></polygon>
            <polygon id="polygon5151" fill-rule="nonzero" points="272.697183 163.166162 274 162.412714 274 231 273.964789 230.976455 269 228.103935 269 161"></polygon>
            <polygon id="polygon5153" fill-rule="nonzero" points="230.678571 188.154788 232 187.401201 232 256 231.964286 255.977628 227 253.1034 227 186"></polygon>
            <path d="M211,134.341811 L232.444331,122.010609 L232.4574,122.035363 L232.516802,122 L232.528683,122.035363 L235.878988,123.943806 C236.412424,124.263255 236.936354,124.61571 237.446029,125.016494 C242.36575,128.694283 245.834861,135.283655 246,141.27185 L246,150.21878 L246,172.179424 L239.798371,182.716525 L239.810251,182.74128 L238.574678,183.401396 L238.586558,183.42615 L238.586558,252.102967 L237.671758,254.200014 L237.731161,254.224768 L237.731161,256.134389 L232.670061,259 L232.670061,257.124563 L231.779022,255.898634 L231.814664,255.923388 L231.814664,187.24775 L230.495927,188.003347 L226.824847,185.846182 L224.472505,184.467011 L224.472505,153.650204 C224.377461,147.285979 219.96979,139.444744 214.350305,136.322159 L211,134.341811 Z" id="path5155" fill-rule="nonzero"></path>
            <path d="M279.6875,229.203545 L279.746782,229.228287 L279.746782,231.136972 L274.695969,234 L274.695969,232.126661 L273.806741,230.901332 L273.84231,230.926074 L273.84231,162.282923 L272.526253,163.03815 L268.791497,160.87026 L266.445122,159.503548 L266.445122,128.704203 C266.51626,122.129843 262.022696,114.695396 256.414634,111.31396 L253,109.405275 L274.470698,97.0094256 L274.48374,97.0341678 L274.543022,97 L274.554878,97.0341678 L277.898374,99.0147232 C278.430725,99.3092734 278.953591,99.6509516 279.451558,100.017372 C284.348238,103.610884 287.881436,110.526922 288,116.335452 L288,125.279173 L288,147.157182 L281.810976,157.689118 L281.834688,157.724464 L280.577913,158.431385 L280.601626,158.466731 L280.601626,227.036834 L279.6875,229.203545 Z" id="path5157" fill-rule="nonzero"></path>
            <path d="M265.999195,159.975317 L265.999195,160 L261.184678,157.108536 L261.184678,141.027998 L261.184678,126.359106 L261.184678,126.287407 C261.001268,122.843508 259.121314,119.541832 256.301383,117.684713 L253,115.746491 L253,115.71123 L253,110 L256.301383,111.904135 C261.722299,115.27751 266.067974,122.695409 265.999195,129.252921 L265.999195,159.975317 Z" id="path5169" fill-rule="nonzero"></path>
            <path d="M224,184 L219.116402,181.108604 L219.116402,165.100141 L219.116402,150.361072 C218.910053,146.916079 217.087302,143.542783 214.232804,141.685708 L211,139.75811 L211,139.711095 L211,134 L214.232804,135.974612 C219.654056,139.088152 223.907143,146.906676 224,153.252468 L224,183.977668 L224,184 Z" id="path5171" fill-rule="nonzero"></path>
            <path d="M182,208.964741 L182,209 L177.116402,206.10874 L177.116402,190.029336 L177.116402,175.29096 L177.116402,175.219266 C176.944444,171.975413 174.961199,168.296695 172.232804,166.686522 L169,164.688496 L169,164.641484 L169,159 L172.232804,160.904001 C177.769841,164.264209 181.828042,171.609891 182,178.179869 L182,208.964741 Z" id="path5173" fill-rule="nonzero"></path>
            <path d="M203.998812,174.269056 L203.998812,196.148619 L197.797183,206.680737 L197.809063,206.705479 L196.573489,207.366461 L196.58537,207.391204 L196.58537,276.034358 L195.67057,278.131591 L195.729973,278.156334 L195.729973,280.135745 L190.668873,283 L190.668873,281.057114 L189.849117,279.903635 L189.884759,279.928378 L189.884759,211.284046 L188.566022,211.967414 L184.824847,209.833656 L182.472505,208.489306 L182.472505,177.632877 C182.295485,171.046621 178.089783,163.68274 172.350305,160.314207 L169,158.405489 L190.444331,146.009426 L190.4574,146.034168 L190.516802,146 L190.528683,146.034168 L193.878988,147.942886 C194.412424,148.262184 194.936354,148.613294 195.446029,149.002107 C200.293279,152.678156 203.977427,159.511838 204,165.331071 L204,174.269056 L203.998812,174.269056 Z" id="path5175" fill-rule="nonzero"></path>
            <polygon id="polygon5177" fill-rule="nonzero" points="184 210 187.697183 212.130911 189 211.448454 189 280 188.964789 279.976467 184 277.105445"></polygon>
            <polygon id="polygon5179" fill-rule="nonzero" points="190 282.987864 189.964286 283 185 280.037621 185 278 190 280.985437"></polygon>
            <polygon id="polygon5181" fill-rule="nonzero" points="148 307.987685 147.964789 308 143 304.995074 143 303 148 306.029557"></polygon>
            <polygon id="polygon5183" fill-rule="nonzero" points="142 235 145.697183 237.165021 147 236.412738 147 305 146.964789 304.977632 142 302.105064"></polygon>
            <path d="M126,183.405275 L147.444331,171.010604 L147.4574,171.034168 L147.516802,171 L147.528683,171.034168 L150.878988,173.014723 C151.412424,173.297491 151.936354,173.637991 152.446029,174.004412 C157.281399,177.551974 161,184.668306 161,190.334274 L161,199.276817 L161,221.154826 L154.798371,231.68794 L154.822132,231.722108 L153.562797,232.430207 L153.586558,232.464374 L153.586558,301.035656 L152.671758,303.203545 L152.731161,303.228287 L152.731161,305.136972 L147.741344,308 L147.741344,306.126661 L146.850305,304.901332 L146.885947,304.926074 L146.885947,236.284101 L145.56721,237.03815 L141.826035,234.87026 L139.473693,233.503548 L139.473693,202.705381 C139.307366,196.049725 135.113544,188.767267 129.351494,185.31396 L126,183.405275 Z" id="path5185" fill-rule="nonzero"></path>
            <path d="M139,233 L134.116402,230.108672 L134.116402,214.030065 L134.116402,199.361863 L134.116402,199.290167 C134.242504,196.233116 131.743386,192.202887 129.232804,190.686702 L126,188.75915 L126,188.712137 L126,183 L129.232804,184.904046 C134.792769,188.348957 138.839506,195.611363 139,202.253191 L139,232.976493 L139,233 Z" id="path5187" fill-rule="nonzero"></path>
            <polygon id="polygon5189" fill-rule="nonzero" points="63 210 58.034965 207.033493 58.034965 205.047847 58 205 63 207.990431"></polygon>
            <polygon id="polygon5191" fill-rule="nonzero" points="21 234 16.034965 230.990291 16.034965 229.048544 16 229 21 232.033981"></polygon>
            <polygon id="polygon5193" fill-rule="nonzero" points="27 226.990339 26.1157895 229.233431 26.1157895 231.055942 20.8842105 234 20.8842105 232.107392 20 230.915749 20 182 27 185.843631"></polygon>
            <polygon id="polygon5195" fill-rule="nonzero" points="20 181.88563 20 231 15 228.090909 15 179"></polygon>
            <path d="M296,91 L288.172234,117 L288.172234,116.581791 C288.355339,111.175366 284.544453,103.907388 280,100.446391 L280,100.434742 L296,91 Z" id="path5197" fill-rule="nonzero"></path>
            <path d="M275,97.0390932 L296,85 L296,90.6199399 L279.86063,99.988434 L279.86063,100 C279.363022,99.6310433 278.856177,99.295628 278.337787,99.0157298 L275.0127,97.0726347 L275,97.0390932 Z" id="path5199" fill-rule="nonzero"></path>
            <path d="M252.769452,116.015502 L256.089337,117.981875 C258.925072,119.865967 260.815562,123.217982 261,126.709516 L261,126.782256 L261,141.66301 L245.299712,151 L245.299712,141.949201 C245.138329,135.891486 241.772334,129.225614 237,125.505128 L237,125.49201 L252.73487,116 L252.769452,116.015502 Z" id="path5213" fill-rule="nonzero"></path>
            <path d="M252.963489,115.694607 L236.886652,124.987159 L236.886652,125 C236.380202,124.603082 235.861974,124.251693 235.333146,123.937661 L232.011778,122.04763 L232,122.012608 L253,110 L253,115.672426 L252.963489,115.694607 Z" id="path5215" fill-rule="nonzero"></path>
            <path d="M210.838617,140.022612 L214.089337,141.974396 C216.959654,143.854772 218.792507,147.270393 219,150.758611 L219,165.682614 L203.299712,175 L203.299712,165.967051 C203.276657,160.089088 199.70317,153.18644 195,149.47329 L210.804035,140 L210.838617,140.022612 Z" id="path5217" fill-rule="nonzero"></path>
            <path d="M210.963611,139.699486 L194.870263,149 C194.365511,148.614426 193.849022,148.263904 193.321968,147.949603 L190.011738,146.056785 L190,146.022901 L211,134 L211,139.677286 L210.963611,139.699486 Z" id="path5219" fill-rule="nonzero"></path>
            <path d="M168.838617,164.022611 L172.089337,166.045733 C174.832853,167.676131 176.825937,171.401054 177,174.685651 L177,174.758245 L177,189.681741 L161.299712,199 L161.299712,189.967358 C161.299712,184.241925 157.691643,177.053893 153,173.472968 L168.804035,164 L168.838617,164.022611 Z" id="path5221" fill-rule="nonzero"></path>
            <path d="M168.963611,164.656546 L152.870263,174 C152.365511,173.634948 151.849022,173.294546 151.321968,173.014007 L148.011738,171.040848 L148,171.006808 L169,159 L169,164.634244 L168.963611,164.656546 Z" id="path5223" fill-rule="nonzero"></path>
            <path d="M125.770715,189.022236 L129.046634,190.94154 C131.589536,192.451237 134.123145,196.466563 133.995361,199.508192 L133.995361,199.579581 L133.995361,214.18385 L105,231 L105,201.123217 L125.735865,189 L125.770715,189.022236 Z" id="path5225" fill-rule="nonzero"></path>
            <polygon id="polygon5227" fill-rule="nonzero" points="105 200.929134 105 195.188976 105 195.153543 126 183 126 188.740157 125.964765 188.76378 105 201"></polygon>
            <polygon id="polygon5229" fill-rule="nonzero" points="0 139.819813 0 134 104.964812 195.15653 105 195.180187 105 200.929027 105 201"></polygon>
            <polygon id="polygon5231" fill-rule="nonzero" points="0 140 105 200.918329 105 230.987044 104.964812 231 65.5077078 208.138401 62.1531501 206.194988 26.6018767 185.583037 19.9162198 181.70799 14.919571 178.810538 11.1193029 176.606826"></polygon>
            <path d="M75.9036554,131.599146 C71.7378887,126.926039 62.2427332,126.751966 57.0646153,129.718221 L48,135 L48.8145354,128.806965 L48.8261716,128.773085 L57.0646153,123.971467 C62.3241867,121.342844 68.3517487,121.342844 73.6113201,123.971467 C77.1603671,126.225073 77.9167214,129.075668 75.9036554,131.599146 Z" id="path5233" fill-rule="nonzero"></path>
            <path d="M76,131.894751 C75.4397432,132.578852 74.6927342,133.239363 73.7356288,133.86449 L73.7006128,133.81731 L65.4368252,138.701554 L64.5275751,145 L48,135.375409 L48.011672,135.329409 L57.1041727,129.996961 C62.2970528,126.999892 71.8214181,127.176814 76,131.894751 Z" id="path5235" fill-rule="nonzero"></path>
            <polygon id="polygon5237" fill-rule="nonzero" points="125.97002 182.904867 105 195 105 194.964737 105 161.112469 105 161.077206 286.203851 56 295 84.8449537 273.874335 97.251575 273.815695 97.2868378 273.803966 97.2621538 252.564198 109.628811 231.65282 121.723944 231.594179 121.759207 231.58245 121.735698 210.413051 134.030654 189.431304 146.125787 189.372663 146.16105 189.360934 146.137542 168.191535 158.503023 147.209788 170.527631 147.151147 170.562894 147.139419 170.539385"></polygon>
            <polygon id="polygon5239" fill-rule="nonzero" points="105 195.988195 104.964812 196 0 134.968665 8.79691689 106 48.5237936 129.138338 48.547252 129.161947 47.7262064 135.418423 47.7144772 135.464461 64.3230563 145.098254 65.2379357 138.794559 104.964812 161.931717 105 161.955326 105 195.952781"></polygon>
            <path d="M0,140 L105,201" id="line5243" stroke="#FFFFFF" stroke-width="2" stroke-linecap="round" stroke-linejoin="round"></path>
            <polyline id="polyline5245" stroke="#FFFFFF" stroke-width="2" stroke-linecap="round" stroke-linejoin="round" points="11 177 14.8050975 179.186836 19.808096 182.062098 26.5022489 185.90747 62.0987006 206.361572 65.4575212 208.290102 104.964768 230.976624 105 231"></polyline>
            <polyline id="polyline5247" stroke="#FFFFFF" stroke-width="2" stroke-linecap="round" stroke-linejoin="round" points="105 231 105 230.963615 105 201"></polyline>
            <path d="M76,132 L75.9882447,131.987648 C71.7894852,127.156831 62.2191287,126.976889 57,130.043254" id="path5249" stroke="#FFFFFF" stroke-width="2" stroke-linecap="round" stroke-linejoin="round"></path>
            <polyline id="polyline5251" stroke="#FFFFFF" stroke-width="2" stroke-linecap="round" stroke-linejoin="round" points="66 138 105.964602 160.976555 106 161"></polyline>
            <polyline id="polyline5253" stroke="#FFFFFF" stroke-width="2" stroke-linecap="round" stroke-linejoin="round" points="105 195 105 161.070686 105 161.035343 105 161"></polyline>
            <polyline id="polyline5255" stroke="#FFFFFF" stroke-width="2" stroke-linecap="round" stroke-linejoin="round" points="0 134 104.964812 194.976412 105 195"></polyline>
            <polyline id="polyline5257" stroke="#FFFFFF" stroke-width="2" stroke-linecap="round" stroke-linejoin="round" points="9 106 48.9646018 128.976556 48.9882006 129 49 129"></polyline>
            <polyline id="polyline5263" stroke="#FFFFFF" stroke-width="2" stroke-linecap="round" stroke-linejoin="round" points="211 134 190.058528 145.965116 190 146"></polyline>
            <polyline id="polyline5265" stroke="#FFFFFF" stroke-width="2" stroke-linecap="round" stroke-linejoin="round" points="169 159 148.058528 170.964912 148 171"></polyline>
            <polyline id="polyline5267" stroke="#FFFFFF" stroke-width="2" stroke-linecap="round" stroke-linejoin="round" points="126 183 105.070234 194.965116 105.035117 194.976744 105 195"></polyline>
            <polyline id="polyline5269" stroke="#FFFFFF" stroke-width="2" stroke-linecap="round" stroke-linejoin="round" points="287 56 105.070644 160.964454 105.035322 160.976463 105 161"></polyline>
            <polyline id="polyline5271" stroke="#FFFFFF" stroke-width="2" stroke-linecap="round" stroke-linejoin="round" points="191 0 9.05890122 104.965894 9 105"></polyline>
            <polyline id="polyline5273" stroke="#FFFFFF" stroke-width="2" stroke-linecap="round" stroke-linejoin="round" points="105 201 105 200.927711 105 195.072289 105 195.036145 105 195"></polyline>
            <polyline id="polyline5275" stroke="#FFFFFF" stroke-width="2" stroke-linecap="round" stroke-linejoin="round" points="296 85 275.057566 96.9655172 275 97"></polyline>
            <path d="M280,101 L296,91" id="line5279" stroke="#FFFFFF" stroke-width="2" stroke-linecap="round" stroke-linejoin="round"></path>
            <polyline id="polyline5281" stroke="#FFFFFF" stroke-width="2" stroke-linecap="round" stroke-linejoin="round" points="48 135 48.01 134.956659 48.71 129.066679 48.72 129.03334 48.72 129"></polyline>
            <path d="M191,0 L288,56" id="line5283" stroke="#FFFFFF" stroke-width="2" stroke-linecap="round" stroke-linejoin="round"></path>
            <polyline id="polyline5285" stroke="#FFFFFF" stroke-width="2" stroke-linecap="round" stroke-linejoin="round" points="296 85 296 90.9268293 296 91"></polyline>
            <path d="M287,56 L296,85" id="line5287" stroke="#FFFFFF" stroke-width="2" stroke-linecap="round" stroke-linejoin="round"></path>
            <path d="M57,127 L57,125" id="line5289" stroke="#FFFFFF" stroke-width="2" stroke-linecap="round" stroke-linejoin="round"></path>
            <path d="M148,171 L151,173" id="line5291" stroke="#FFFFFF" stroke-width="2" stroke-linecap="round" stroke-linejoin="round"></path>
            <path d="M126,183 L129,185" id="line5293" stroke="#FFFFFF" stroke-width="2" stroke-linecap="round" stroke-linejoin="round"></path>
            <path d="M151,173 C151.527054,173.277551 152.044719,173.611769 152.548302,173.971428 C157.325858,177.453541 161,184.438573 161,190" id="path5295" stroke="#FFFFFF" stroke-width="2" stroke-linecap="round" stroke-linejoin="round"></path>
            <polyline id="polyline5297" stroke="#FFFFFF" stroke-width="2" stroke-linecap="round" stroke-linejoin="round" points="161 190 161 198.994266 161 221"></polyline>
            <path d="M134.995316,200 C135.124299,196.802046 132.568014,192.586056 130,191" id="path5299" stroke="#FFFFFF" stroke-width="2" stroke-linecap="round" stroke-linejoin="round"></path>
            <polyline id="polyline5301" stroke="#FFFFFF" stroke-width="2" stroke-linecap="round" stroke-linejoin="round" points="129 191 126.0625 189.047619 126.03125 189.02381 126 189"></polyline>
            <path d="M130,185 C135.692491,188.375587 139.835676,195.491837 140,202" id="path5303" stroke="#FFFFFF" stroke-width="2" stroke-linecap="round" stroke-linejoin="round"></path>
            <polyline id="polyline5305" stroke="#FFFFFF" stroke-width="2" stroke-linecap="round" stroke-linejoin="round" points="140 202 140 232.975115 140 233"></polyline>
            <polyline id="polyline5307" stroke="#FFFFFF" stroke-width="2" stroke-linecap="round" stroke-linejoin="round" points="135 230 135 213.826087 135 199.070938 135 199"></polyline>
            <polyline id="polyline5309" stroke="#FFFFFF" stroke-width="2" stroke-linecap="round" stroke-linejoin="round" points="142 302 146.964789 304.97682 147 305"></polyline>
            <path d="M143,303 L148,306" id="line5311" stroke="#FFFFFF" stroke-width="2" stroke-linecap="round" stroke-linejoin="round"></path>
            <polyline id="polyline5313" stroke="#FFFFFF" stroke-width="2" stroke-linecap="round" stroke-linejoin="round" points="143 305 147.964789 307.97561 148 308"></polyline>
            <polyline id="polyline5315" stroke="#FFFFFF" stroke-width="2" stroke-linecap="round" stroke-linejoin="round" points="148 308 148 307.964307 148 306.072576 148 306"></polyline>
            <polyline id="polyline5317" stroke="#FFFFFF" stroke-width="2" stroke-linecap="round" stroke-linejoin="round" points="147 305 147 236.070989 147 236"></polyline>
            <polyline id="polyline5319" stroke="#FFFFFF" stroke-width="2" stroke-linecap="round" stroke-linejoin="round" points="147 236 146.026316 236.639 146 236.66"></polyline>
            <polyline id="polyline5321" stroke="#FFFFFF" stroke-width="2" stroke-linecap="round" stroke-linejoin="round" points="146 237 145.965517 236.972549 142.344828 234.568627 140.068966 233.05098 140 233"></polyline>
            <polyline id="polyline5323" stroke="#FFFFFF" stroke-width="2" stroke-linecap="round" stroke-linejoin="round" points="153.78 301 153.01 302.978495 153 303"></polyline>
            <path d="M153,303 L153,305" id="line5325" stroke="#FFFFFF" stroke-width="2" stroke-linecap="round" stroke-linejoin="round"></path>
            <path d="M154,232 L154,300" id="line5327" stroke="#FFFFFF" stroke-width="2" stroke-linecap="round" stroke-linejoin="round"></path>
            <path d="M161,221 L155,232" id="line5329" stroke="#FFFFFF" stroke-width="2" stroke-linecap="round" stroke-linejoin="round"></path>
            <polyline id="polyline5331" stroke="#FFFFFF" stroke-width="2" stroke-linecap="round" stroke-linejoin="round" points="155 231 154.964912 231.03 154.035088 231.63 154 231.659"></polyline>
            <polyline id="polyline5333" stroke="#FFFFFF" stroke-width="2" stroke-linecap="round" stroke-linejoin="round" points="253 110 232.058725 121.965116 232 122"></polyline>
            <polyline id="polyline5337" stroke="#FFFFFF" stroke-width="2" stroke-linecap="round" stroke-linejoin="round" points="195 149 210.965066 140.022556 211 140"></polyline>
            <polyline id="polyline5339" stroke="#FFFFFF" stroke-width="2" stroke-linecap="round" stroke-linejoin="round" points="237 125 252.964912 116.023681 253 116"></polyline>
            <path d="M65.762653,138 L65,144" id="line5347" stroke="#FFFFFF" stroke-width="2" stroke-linecap="round" stroke-linejoin="round"></path>
            <polyline id="polyline5349" stroke="#FFFFFF" stroke-width="2" stroke-linecap="round" stroke-linejoin="round" points="153 173 168.965066 164.021431 169 164"></polyline>
            <path d="M9,106 L0,135" id="line5351" stroke="#FFFFFF" stroke-width="2" stroke-linecap="round" stroke-linejoin="round"></path>
            <polyline id="polyline5353" stroke="#FFFFFF" stroke-width="2" stroke-linecap="round" stroke-linejoin="round" points="105 201 125.964765 189.023121 126 189"></polyline>
            <polyline id="polyline5355" stroke="#FFFFFF" stroke-width="2" stroke-linecap="round" stroke-linejoin="round" points="134 214 105.069544 230.963403 105.034772 230.976389 105 231"></polyline>
            <polyline id="polyline5357" stroke="#FFFFFF" stroke-width="2" stroke-linecap="round" stroke-linejoin="round" points="177 190 161.070175 198.965653 161 199"></polyline>
            <polyline id="polyline5359" stroke="#FFFFFF" stroke-width="2" stroke-linecap="round" stroke-linejoin="round" points="219 165 203.070175 173.965649 203 174"></polyline>
            <polyline id="polyline5361" stroke="#FFFFFF" stroke-width="2" stroke-linecap="round" stroke-linejoin="round" points="262 141 246.070175 149.964508 246 150"></polyline>
            <path d="M48,135 L65,145" id="line5369" stroke="#FFFFFF" stroke-width="2" stroke-linecap="round" stroke-linejoin="round"></path>
            <path d="M0,134 L0,140" id="line5371" stroke="#FFFFFF" stroke-width="2" stroke-linecap="round" stroke-linejoin="round"></path>
            <path d="M0,140 L11,177" id="line5373" stroke="#FFFFFF" stroke-width="2" stroke-linecap="round" stroke-linejoin="round"></path>
            <path d="M107,131.031053 C107.621453,121.785481 128.532199,121.727085 129.993764,130.448406 C130.431085,140.275406 107.725029,140.555166 107,131.031053 Z" id="path5375" stroke="#FFFFFF" stroke-width="2" stroke-linecap="round" stroke-linejoin="round"></path>
            <path d="M288,117 L296,91" id="line5377" stroke="#FFFFFF" stroke-width="2" stroke-linecap="round" stroke-linejoin="round"></path>
            <polyline id="polyline5389" stroke="#FFFFFF" stroke-width="2" stroke-linecap="round" stroke-linejoin="round" points="253 109 273.919142 97.0454502 274 97"></polyline>
            <polyline id="polyline5391" stroke="#FFFFFF" stroke-width="2" stroke-linecap="round" stroke-linejoin="round" points="253 116 253 115.963863 253 115.926521 253 110.073479 253 110"></polyline>
            <polyline id="polyline5393" stroke="#FFFFFF" stroke-width="2" stroke-linecap="round" stroke-linejoin="round" points="211 134 231.918874 122.045714 232 122"></polyline>
            <polyline id="polyline5395" stroke="#FFFFFF" stroke-width="2" stroke-linecap="round" stroke-linejoin="round" points="211 140 211 139.975904 211 139.927711 211 134.072289 211 134"></polyline>
            <polyline id="polyline5397" stroke="#FFFFFF" stroke-width="2" stroke-linecap="round" stroke-linejoin="round" points="169 158 189.918874 146.045455 190 146"></polyline>
            <polyline id="polyline5399" stroke="#FFFFFF" stroke-width="2" stroke-linecap="round" stroke-linejoin="round" points="169 165 169 164.976825 169 164.928034 169 159.073186 169 159"></polyline>
            <polyline id="polyline5401" stroke="#FFFFFF" stroke-width="2" stroke-linecap="round" stroke-linejoin="round" points="126 183 146.918874 171.045455 147 171"></polyline>
            <polyline id="polyline5403" stroke="#FFFFFF" stroke-width="2" stroke-linecap="round" stroke-linejoin="round" points="126 189 126 188.975904 126 188.927711 126 183.072289 126 183"></polyline>
            <path d="M66,138 L74,133" id="line5405" stroke="#FFFFFF" stroke-width="2" stroke-linecap="round" stroke-linejoin="round"></path>
            <path d="M73.6010123,134 C73.6138469,133.986623 73.6255233,133.986623 73.6360298,133.974608 C74.5932641,133.332729 75.3403742,132.654522 75.9007058,131.952098 C77.9190701,129.336154 77.1614535,126.379892 73.5998422,124.043709 C68.3233801,121.318764 62.2764609,121.318764 57,124.043709" id="path5407" stroke="#FFFFFF" stroke-width="2" stroke-linecap="round" stroke-linejoin="round"></path>
            <polyline id="polyline5409" stroke="#FFFFFF" stroke-width="2" stroke-linecap="round" stroke-linejoin="round" points="57 124 49.0672269 128.963768 49.0336134 128.975845 49 129"></polyline>
            <polyline id="polyline5411" stroke="#FFFFFF" stroke-width="2" stroke-linecap="round" stroke-linejoin="round" points="57 130 48.0801527 134.957227 48 135"></polyline>
            <path d="M146,175 L134,182" id="line5413" stroke="#FFFFFF" stroke-width="2" stroke-linecap="round" stroke-linejoin="round"></path>
            <polyline id="polyline5415" stroke="#FFFFFF" stroke-width="2" stroke-linecap="round" stroke-linejoin="round" points="153 305 148.070423 307.963415 148.035211 307.97561 148 308"></polyline>
            <path d="M156,193 L144,200" id="line5417" stroke="#FFFFFF" stroke-width="2" stroke-linecap="round" stroke-linejoin="round"></path>
            <path d="M190,146 L193,148" id="line5419" stroke="#FFFFFF" stroke-width="2" stroke-linecap="round" stroke-linejoin="round"></path>
            <path d="M193,148 C193.527054,148.312169 194.044719,148.655441 194.548302,149.035565 C199.3376,152.629558 202.977694,159.310678 203,165" id="path5421" stroke="#FFFFFF" stroke-width="2" stroke-linecap="round" stroke-linejoin="round"></path>
            <path d="M169,159 L172,161" id="line5423" stroke="#FFFFFF" stroke-width="2" stroke-linecap="round" stroke-linejoin="round"></path>
            <polyline id="polyline5425" stroke="#FFFFFF" stroke-width="2" stroke-linecap="round" stroke-linejoin="round" points="203 166 203 174.994266 203 197"></polyline>
            <path d="M177,175 C176.823948,171.578515 174.793428,167.698349 172,166" id="path5427" stroke="#FFFFFF" stroke-width="2" stroke-linecap="round" stroke-linejoin="round"></path>
            <polyline id="polyline5429" stroke="#FFFFFF" stroke-width="2" stroke-linecap="round" stroke-linejoin="round" points="172 166 169.0625 164.045977 169.03125 164.021839 169 164"></polyline>
            <path d="M172,161 C177.669006,164.306542 181.823936,171.534927 182,178" id="path5431" stroke="#FFFFFF" stroke-width="2" stroke-linecap="round" stroke-linejoin="round"></path>
            <polyline id="polyline5433" stroke="#FFFFFF" stroke-width="2" stroke-linecap="round" stroke-linejoin="round" points="182 178 182 208.964532 182 209"></polyline>
            <polyline id="polyline5435" stroke="#FFFFFF" stroke-width="2" stroke-linecap="round" stroke-linejoin="round" points="177 206 177 189.861834 177 175.069597 177 175"></polyline>
            <polyline id="polyline5437" stroke="#FFFFFF" stroke-width="2" stroke-linecap="round" stroke-linejoin="round" points="184 277 188.964789 279.97561 189 280"></polyline>
            <path d="M185,278 L190,281" id="line5439" stroke="#FFFFFF" stroke-width="2" stroke-linecap="round" stroke-linejoin="round"></path>
            <polyline id="polyline5441" stroke="#FFFFFF" stroke-width="2" stroke-linecap="round" stroke-linejoin="round" points="185 280 189.964286 282.976829 190 283"></polyline>
            <polyline id="polyline5443" stroke="#FFFFFF" stroke-width="2" stroke-linecap="round" stroke-linejoin="round" points="190 283 190 282.966647 190 281.069005 190 281"></polyline>
            <polyline id="polyline5445" stroke="#FFFFFF" stroke-width="2" stroke-linecap="round" stroke-linejoin="round" points="189 280 189 211.07217 189 211"></polyline>
            <polyline id="polyline5447" stroke="#FFFFFF" stroke-width="2" stroke-linecap="round" stroke-linejoin="round" points="189 212 188.026316 212.58 188 212.6"></polyline>
            <polyline id="polyline5449" stroke="#FFFFFF" stroke-width="2" stroke-linecap="round" stroke-linejoin="round" points="188 213 187.965517 212.973333 184.344828 210.558667 182.068966 209.04 182 209"></polyline>
            <polyline id="polyline5451" stroke="#FFFFFF" stroke-width="2" stroke-linecap="round" stroke-linejoin="round" points="195.78 276 195.01 277.977778 195 278"></polyline>
            <path d="M195,278 L195,280" id="line5453" stroke="#FFFFFF" stroke-width="2" stroke-linecap="round" stroke-linejoin="round"></path>
            <path d="M196,208 L196,277" id="line5455" stroke="#FFFFFF" stroke-width="2" stroke-linecap="round" stroke-linejoin="round"></path>
            <path d="M203,196 L197,207" id="line5457" stroke="#FFFFFF" stroke-width="2" stroke-linecap="round" stroke-linejoin="round"></path>
            <polyline id="polyline5459" stroke="#FFFFFF" stroke-width="2" stroke-linecap="round" stroke-linejoin="round" points="197 207 196.95614 207.02 196.04386 207.58 196 207.6"></polyline>
            <polyline id="polyline5461" stroke="#FFFFFF" stroke-width="2" stroke-linecap="round" stroke-linejoin="round" points="147.78 305 147.03 304.037037 147 304"></polyline>
            <polyline id="polyline5463" stroke="#FFFFFF" stroke-width="2" stroke-linecap="round" stroke-linejoin="round" points="142 301 142 234.070452 142 234"></polyline>
            <polyline id="polyline5465" stroke="#FFFFFF" stroke-width="2" stroke-linecap="round" stroke-linejoin="round" points="142.78 303 142.05 302.064815 142 302"></polyline>
            <polyline id="polyline5467" stroke="#FFFFFF" stroke-width="2" stroke-linecap="round" stroke-linejoin="round" points="143 305 143 303.072576 143 303"></polyline>
            <path d="M135,230 L140,233" id="line5469" stroke="#FFFFFF" stroke-width="2" stroke-linecap="round" stroke-linejoin="round"></path>
            <path d="M189,151 L177,158" id="line5471" stroke="#FFFFFF" stroke-width="2" stroke-linecap="round" stroke-linejoin="round"></path>
            <path d="M177,206 L182,209" id="line5473" stroke="#FFFFFF" stroke-width="2" stroke-linecap="round" stroke-linejoin="round"></path>
            <polyline id="polyline5475" stroke="#FFFFFF" stroke-width="2" stroke-linecap="round" stroke-linejoin="round" points="195 280 190.069444 282.964634 190.034722 282.976829 190 283"></polyline>
            <path d="M199,168 L187,175" id="line5477" stroke="#FFFFFF" stroke-width="2" stroke-linecap="round" stroke-linejoin="round"></path>
            <path d="M232,122 L235,124" id="line5479" stroke="#FFFFFF" stroke-width="2" stroke-linecap="round" stroke-linejoin="round"></path>
            <path d="M236,124 C236.527054,124.313401 237.044719,124.659186 237.548302,125.052378 C242.409201,128.660551 245.836833,135.125172 246,141" id="path5481" stroke="#FFFFFF" stroke-width="2" stroke-linecap="round" stroke-linejoin="round"></path>
            <path d="M211,134 L214,136" id="line5483" stroke="#FFFFFF" stroke-width="2" stroke-linecap="round" stroke-linejoin="round"></path>
            <polyline id="polyline5485" stroke="#FFFFFF" stroke-width="2" stroke-linecap="round" stroke-linejoin="round" points="246 141 246 149.972844 246 172"></polyline>
            <path d="M219,151 C218.78874,147.426099 216.922533,143.926563 214,142" id="path5487" stroke="#FFFFFF" stroke-width="2" stroke-linecap="round" stroke-linejoin="round"></path>
            <polyline id="polyline5489" stroke="#FFFFFF" stroke-width="2" stroke-linecap="round" stroke-linejoin="round" points="214 142 211.0625 140.047619 211.03125 140.02381 211 140"></polyline>
            <path d="M214,136 C219.550466,139.063469 223.904928,146.756263 224,153" id="path5491" stroke="#FFFFFF" stroke-width="2" stroke-linecap="round" stroke-linejoin="round"></path>
            <polyline id="polyline5493" stroke="#FFFFFF" stroke-width="2" stroke-linecap="round" stroke-linejoin="round" points="224 154 224 184.9763 224 185"></polyline>
            <polyline id="polyline5495" stroke="#FFFFFF" stroke-width="2" stroke-linecap="round" stroke-linejoin="round" points="219 182 219 165.897025 219 151.070938 219 151"></polyline>
            <polyline id="polyline5497" stroke="#FFFFFF" stroke-width="2" stroke-linecap="round" stroke-linejoin="round" points="227 253 231.964286 255.976829 232 256"></polyline>
            <path d="M228,254 L233,257" id="line5499" stroke="#FFFFFF" stroke-width="2" stroke-linecap="round" stroke-linejoin="round"></path>
            <polyline id="polyline5501" stroke="#FFFFFF" stroke-width="2" stroke-linecap="round" stroke-linejoin="round" points="228 256 232.964789 258.97561 233 259"></polyline>
            <polyline id="polyline5503" stroke="#FFFFFF" stroke-width="2" stroke-linecap="round" stroke-linejoin="round" points="233 259 233 258.964307 233 257.072576 233 257"></polyline>
            <polyline id="polyline5505" stroke="#FFFFFF" stroke-width="2" stroke-linecap="round" stroke-linejoin="round" points="232 256 232 187.070989 232 187"></polyline>
            <polyline id="polyline5507" stroke="#FFFFFF" stroke-width="2" stroke-linecap="round" stroke-linejoin="round" points="231 187 230.026316 187.64 230 187.66"></polyline>
            <polyline id="polyline5509" stroke="#FFFFFF" stroke-width="2" stroke-linecap="round" stroke-linejoin="round" points="230 188 229.965116 187.973856 226.372093 185.581699 224.069767 184.052288 224 184"></polyline>
            <polyline id="polyline5511" stroke="#FFFFFF" stroke-width="2" stroke-linecap="round" stroke-linejoin="round" points="237.78 252 237.01 253.976667 237 254"></polyline>
            <path d="M238,254 L238,256" id="line5513" stroke="#FFFFFF" stroke-width="2" stroke-linecap="round" stroke-linejoin="round"></path>
            <path d="M238,183 L238,252" id="line5515" stroke="#FFFFFF" stroke-width="2" stroke-linecap="round" stroke-linejoin="round"></path>
            <path d="M246,172 L240,183" id="line5517" stroke="#FFFFFF" stroke-width="2" stroke-linecap="round" stroke-linejoin="round"></path>
            <polyline id="polyline5519" stroke="#FFFFFF" stroke-width="2" stroke-linecap="round" stroke-linejoin="round" points="239 183 238.95614 183.02 238.04386 183.58 238 183.599"></polyline>
            <polyline id="polyline5521" stroke="#FFFFFF" stroke-width="2" stroke-linecap="round" stroke-linejoin="round" points="189.72 281 189.03 280.039216 189 280"></polyline>
            <polyline id="polyline5523" stroke="#FFFFFF" stroke-width="2" stroke-linecap="round" stroke-linejoin="round" points="184 277 184 210.034052 184 210"></polyline>
            <polyline id="polyline5525" stroke="#FFFFFF" stroke-width="2" stroke-linecap="round" stroke-linejoin="round" points="184.78 278 184.05 277.068627 184 277"></polyline>
            <polyline id="polyline5527" stroke="#FFFFFF" stroke-width="2" stroke-linecap="round" stroke-linejoin="round" points="185 280 185 278.069005 185 278"></polyline>
            <path d="M231,127 L219,134" id="line5529" stroke="#FFFFFF" stroke-width="2" stroke-linecap="round" stroke-linejoin="round"></path>
            <path d="M219,181 L224,184" id="line5531" stroke="#FFFFFF" stroke-width="2" stroke-linecap="round" stroke-linejoin="round"></path>
            <polyline id="polyline5533" stroke="#FFFFFF" stroke-width="2" stroke-linecap="round" stroke-linejoin="round" points="237 256 232.069444 258.963415 232.034722 258.97561 232 259"></polyline>
            <path d="M241,144 L229,151" id="line5535" stroke="#FFFFFF" stroke-width="2" stroke-linecap="round" stroke-linejoin="round"></path>
            <path d="M275,97 L278,99" id="line5537" stroke="#FFFFFF" stroke-width="2" stroke-linecap="round" stroke-linejoin="round"></path>
            <path d="M278,99 C278.526992,99.2890988 279.044596,99.6244529 279.537557,99.9840878 C284.384979,103.51106 287.882636,110.299027 288,116" id="path5539" stroke="#FFFFFF" stroke-width="2" stroke-linecap="round" stroke-linejoin="round"></path>
            <path d="M253,110 L256,112" id="line5541" stroke="#FFFFFF" stroke-width="2" stroke-linecap="round" stroke-linejoin="round"></path>
            <polyline id="polyline5543" stroke="#FFFFFF" stroke-width="2" stroke-linecap="round" stroke-linejoin="round" points="288 117 288 125.994266 288 148"></polyline>
            <path d="M262,127 C261.812208,123.397045 259.887325,119.942883 257,118" id="path5545" stroke="#FFFFFF" stroke-width="2" stroke-linecap="round" stroke-linejoin="round"></path>
            <polyline id="polyline5547" stroke="#FFFFFF" stroke-width="2" stroke-linecap="round" stroke-linejoin="round" points="256 118 253.061224 116.036883 253.030612 116.024985 253 116"></polyline>
            <path d="M257,112 C262.58937,115.305553 267.070091,122.573165 266.99917,129" id="path5549" stroke="#FFFFFF" stroke-width="2" stroke-linecap="round" stroke-linejoin="round"></path>
            <polyline id="polyline5551" stroke="#FFFFFF" stroke-width="2" stroke-linecap="round" stroke-linejoin="round" points="267 129 267 159.9763 267 160"></polyline>
            <polyline id="polyline5553" stroke="#FFFFFF" stroke-width="2" stroke-linecap="round" stroke-linejoin="round" points="262 157 262 140.825522 262 126.072118 262 126"></polyline>
            <polyline id="polyline5555" stroke="#FFFFFF" stroke-width="2" stroke-linecap="round" stroke-linejoin="round" points="269 228 273.964789 230.97561 274 231"></polyline>
            <path d="M270,229 L275,232" id="line5557" stroke="#FFFFFF" stroke-width="2" stroke-linecap="round" stroke-linejoin="round"></path>
            <polyline id="polyline5559" stroke="#FFFFFF" stroke-width="2" stroke-linecap="round" stroke-linejoin="round" points="270 231 274.964789 233.97561 275 234"></polyline>
            <polyline id="polyline5561" stroke="#FFFFFF" stroke-width="2" stroke-linecap="round" stroke-linejoin="round" points="275 234 275 233.964286 275 232.071429 275 232"></polyline>
            <polyline id="polyline5563" stroke="#FFFFFF" stroke-width="2" stroke-linecap="round" stroke-linejoin="round" points="274 232 274 163.070988 274 163"></polyline>
            <polyline id="polyline5565" stroke="#FFFFFF" stroke-width="2" stroke-linecap="round" stroke-linejoin="round" points="274 163 273.026316 163.64 273 163.66"></polyline>
            <polyline id="polyline5567" stroke="#FFFFFF" stroke-width="2" stroke-linecap="round" stroke-linejoin="round" points="273 164 272.965517 163.973865 269.344828 161.569422 267.068966 160.053577 267 160"></polyline>
            <polyline id="polyline5569" stroke="#FFFFFF" stroke-width="2" stroke-linecap="round" stroke-linejoin="round" points="280.78 227 280.01 228.978495 280 229"></polyline>
            <path d="M280,229 L280,231" id="line5571" stroke="#FFFFFF" stroke-width="2" stroke-linecap="round" stroke-linejoin="round"></path>
            <path d="M281,159 L281,227" id="line5573" stroke="#FFFFFF" stroke-width="2" stroke-linecap="round" stroke-linejoin="round"></path>
            <path d="M288,148 L282,159" id="line5575" stroke="#FFFFFF" stroke-width="2" stroke-linecap="round" stroke-linejoin="round"></path>
            <polyline id="polyline5577" stroke="#FFFFFF" stroke-width="2" stroke-linecap="round" stroke-linejoin="round" points="282 158 281.964912 158.031 281.035088 158.63 281 158.661"></polyline>
            <polyline id="polyline5579" stroke="#FFFFFF" stroke-width="2" stroke-linecap="round" stroke-linejoin="round" points="232.78 257 232.03 256.037037 232 256"></polyline>
            <polyline id="polyline5581" stroke="#FFFFFF" stroke-width="2" stroke-linecap="round" stroke-linejoin="round" points="227 253 227 186.082196 227 186"></polyline>
            <polyline id="polyline5583" stroke="#FFFFFF" stroke-width="2" stroke-linecap="round" stroke-linejoin="round" points="227.72 254 227.05 253.064815 227 253"></polyline>
            <polyline id="polyline5585" stroke="#FFFFFF" stroke-width="2" stroke-linecap="round" stroke-linejoin="round" points="228 256 228 254.072576 228 254"></polyline>
            <path d="M273,102 L261,109" id="line5587" stroke="#FFFFFF" stroke-width="2" stroke-linecap="round" stroke-linejoin="round"></path>
            <path d="M262,157 L267,160" id="line5589" stroke="#FFFFFF" stroke-width="2" stroke-linecap="round" stroke-linejoin="round"></path>
            <polyline id="polyline5591" stroke="#FFFFFF" stroke-width="2" stroke-linecap="round" stroke-linejoin="round" points="280 231 275.069444 233.963415 275.034722 233.97561 275 234"></polyline>
            <path d="M283,119 L271,126" id="line5593" stroke="#FFFFFF" stroke-width="2" stroke-linecap="round" stroke-linejoin="round"></path>
            <polyline id="polyline5637" stroke="#FFFFFF" stroke-width="2" stroke-linecap="round" stroke-linejoin="round" points="274.78 232 274.03 231.037037 274 231"></polyline>
            <polyline id="polyline5639" stroke="#FFFFFF" stroke-width="2" stroke-linecap="round" stroke-linejoin="round" points="269 228 269 161.070452 269 161"></polyline>
            <polyline id="polyline5641" stroke="#FFFFFF" stroke-width="2" stroke-linecap="round" stroke-linejoin="round" points="269.78 229 269.05 228.063889 269 228"></polyline>
            <polyline id="polyline5643" stroke="#FFFFFF" stroke-width="2" stroke-linecap="round" stroke-linejoin="round" points="270 231 270 229.071429 270 229"></polyline>
            <path d="M62,206 L62,206.29334" id="line5769" stroke="#FFFFFF" stroke-width="2" stroke-linecap="round" stroke-linejoin="round"></path>
            <path d="M62,207 L62.703984,207.93864" id="line5771" stroke="#FFFFFF" stroke-width="2" stroke-linecap="round" stroke-linejoin="round"></path>
            <path d="M63,208 L63,210" id="line5773" stroke="#FFFFFF" stroke-width="2" stroke-linecap="round" stroke-linejoin="round"></path>
            <polyline id="polyline5775" stroke="#FFFFFF" stroke-width="2" stroke-linecap="round" stroke-linejoin="round" points="63 210 65.9861111 208.015152 66 208"></polyline>
            <polyline id="polyline5777" stroke="#FFFFFF" stroke-width="2" stroke-linecap="round" stroke-linejoin="round" points="62 207 57.0694444 204.0476 57 204"></polyline>
            <polyline id="polyline5779" stroke="#FFFFFF" stroke-width="2" stroke-linecap="round" stroke-linejoin="round" points="63 208 58.0347222 205.02381 58 205"></polyline>
            <polyline id="polyline5781" stroke="#FFFFFF" stroke-width="2" stroke-linecap="round" stroke-linejoin="round" points="57 204 57.69 204.92 57.72 204.96"></polyline>
            <polyline id="polyline5783" stroke="#FFFFFF" stroke-width="2" stroke-linecap="round" stroke-linejoin="round" points="63 210 58.0694444 207.047619 58 207"></polyline>
            <polyline id="polyline5785" stroke="#FFFFFF" stroke-width="2" stroke-linecap="round" stroke-linejoin="round" points="58 205 58 206.97619 58 207"></polyline>
            <polyline id="polyline5787" stroke="#FFFFFF" stroke-width="2" stroke-linecap="round" stroke-linejoin="round" points="57 203 57 203.279 57 203.3"></polyline>
            <polyline id="polyline5789" stroke="#FFFFFF" stroke-width="2" stroke-linecap="round" stroke-linejoin="round" points="20 182 20 182.0117 20 231"></polyline>
            <path d="M20,231 L20.703985,231.99732" id="line5791" stroke="#FFFFFF" stroke-width="2" stroke-linecap="round" stroke-linejoin="round"></path>
            <polyline id="polyline5793" stroke="#FFFFFF" stroke-width="2" stroke-linecap="round" stroke-linejoin="round" points="27 228 27 227.928693 27 186.071307 27 186"></polyline>
            <path d="M26,229 L26.703987,227" id="line5795" stroke="#FFFFFF" stroke-width="2" stroke-linecap="round" stroke-linejoin="round"></path>
            <polyline id="polyline5797" stroke="#FFFFFF" stroke-width="2" stroke-linecap="round" stroke-linejoin="round" points="26 231 26 230.928571 26 229.071429 26 229"></polyline>
            <path d="M21,232 L21,234" id="line5799" stroke="#FFFFFF" stroke-width="2" stroke-linecap="round" stroke-linejoin="round"></path>
            <path d="M21,234 L26,231" id="line5801" stroke="#FFFFFF" stroke-width="2" stroke-linecap="round" stroke-linejoin="round"></path>
            <polyline id="polyline5803" stroke="#FFFFFF" stroke-width="2" stroke-linecap="round" stroke-linejoin="round" points="20 231 15.0694444 228.047619 15 228"></polyline>
            <polyline id="polyline5805" stroke="#FFFFFF" stroke-width="2" stroke-linecap="round" stroke-linejoin="round" points="21 232 16.0347222 229.02381 16 229"></polyline>
            <polyline id="polyline5807" stroke="#FFFFFF" stroke-width="2" stroke-linecap="round" stroke-linejoin="round" points="15 228 15.69 228.960784 15.72 229"></polyline>
            <polyline id="polyline5809" stroke="#FFFFFF" stroke-width="2" stroke-linecap="round" stroke-linejoin="round" points="21 234 16.0694444 231.047619 16 231"></polyline>
            <polyline id="polyline5811" stroke="#FFFFFF" stroke-width="2" stroke-linecap="round" stroke-linejoin="round" points="16 229 16 230.975309 16 231"></polyline>
            <polyline id="polyline5813" stroke="#FFFFFF" stroke-width="2" stroke-linecap="round" stroke-linejoin="round" points="15 179 15 179.0117 15 227.9766 15 228"></polyline>
            <path d="M137.373604,87.2955003 L137.828787,88.4627267 L132.862717,88.4627267 L134.306051,92.1638684 L138.550309,92.1638684 L139.005492,93.3310947 L134.761234,93.3310947 L136.535872,97.8817999 L135.128338,97.8817999 L131,87.2955003 L137.373604,87.2955003 Z M143.330478,93.4640698 L145.05326,97.8817999 L143.660161,97.8817999 L139.531823,87.2955003 L142.455164,87.2955003 C143.109611,87.2955003 143.701433,87.3632185 144.230648,87.4986568 C144.759864,87.6340951 145.229591,87.8298622 145.639844,88.0859637 C146.050096,88.3420653 146.400388,88.6511063 146.690728,89.013096 C146.981069,89.3750858 147.213623,89.7801634 147.388399,90.2283412 C147.534366,90.6026435 147.612983,90.9523154 147.624253,91.2773674 C147.635523,91.6024194 147.582099,91.894223 147.46398,92.1527871 C147.345862,92.4113512 147.16474,92.631743 146.92061,92.8139691 C146.676479,92.9961952 146.372962,93.134094 146.010049,93.2276696 C146.223618,93.3310952 146.43618,93.4813064 146.647744,93.6783076 L151.304156,97.8817999 L150.062638,97.8817999 C149.807596,97.8817999 149.580555,97.7808383 149.381507,97.578912 L145.221341,93.7965077 C145.093441,93.678307 144.971288,93.5933515 144.854879,93.5416387 C144.738471,93.4899259 144.584026,93.4640698 144.391542,93.4640698 L143.330478,93.4640698 Z M142.92427,92.4224312 L144.389549,92.4224312 C144.798579,92.4224312 145.138592,92.3719504 145.409601,92.2709872 C145.680609,92.1700241 145.884762,92.0272004 146.022065,91.8425118 C146.159369,91.6578231 146.231017,91.4374313 146.237012,91.1813298 C146.243006,90.9252282 146.185505,90.6420432 146.064506,90.3317663 C145.818668,89.7013624 145.430023,89.2261041 144.89856,88.9059772 C144.367097,88.5858502 143.699564,88.4257891 142.895943,88.4257891 L141.3657,88.4257891 L142.92427,92.4224312 Z M160.241849,92.5923439 C160.551068,93.3852737 160.712127,94.112936 160.725032,94.7753526 C160.737937,95.4377692 160.613779,96.0078328 160.352552,96.4855608 C160.091326,96.9632887 159.698105,97.3338917 159.172878,97.5973808 C158.64765,97.8608699 158.00489,97.9926125 157.244577,97.9926125 C156.484264,97.9926125 155.739955,97.8608699 155.011629,97.5973808 C154.283302,97.3338917 153.602236,96.9632887 152.968411,96.4855608 C152.334585,96.0078328 151.765811,95.4377692 151.262071,94.7753526 C150.758331,94.112936 150.351858,93.3852737 150.042639,92.5923439 C149.73342,91.799414 149.572361,91.0717517 149.559456,90.4093351 C149.54655,89.7469186 149.670229,89.1756236 149.930495,88.6954332 C150.190761,88.2152427 150.581819,87.8421773 151.10368,87.5762257 C151.625541,87.310274 152.266618,87.1773002 153.026931,87.1773002 C153.787244,87.1773002 154.533236,87.310274 155.264929,87.5762257 C155.996622,87.8421773 156.679851,88.2152427 157.314637,88.6954332 C157.949423,89.1756236 158.518677,89.7469186 159.022417,90.4093351 C159.526157,91.0717517 159.93263,91.799414 160.241849,92.5923439 Z M158.805442,92.5923439 C158.551921,91.9422399 158.237715,91.3586325 157.862815,90.8415044 C157.487915,90.3243762 157.072049,89.8872863 156.615206,89.5302216 C156.158362,89.1731569 155.666327,88.8985906 155.139085,88.7065144 C154.611843,88.5144383 154.069128,88.4184016 153.510923,88.4184016 C152.957531,88.4184016 152.492124,88.5144383 152.11469,88.7065144 C151.737256,88.8985906 151.458163,89.1731569 151.277402,89.5302216 C151.096642,89.8872863 151.020477,90.3243762 151.048905,90.8415044 C151.077334,91.3586325 151.218307,91.9422399 151.471828,92.5923439 C151.725349,93.2424478 152.039074,93.8248239 152.413014,94.3394896 C152.786954,94.8541552 153.203543,95.2900139 153.662792,95.6470786 C154.122042,96.0041433 154.6148,96.2774783 155.141082,96.467092 C155.667364,96.6567057 156.207193,96.7515111 156.760585,96.7515111 C157.318789,96.7515111 157.787082,96.6567057 158.165476,96.467092 C158.543871,96.2774783 158.822241,96.0041433 159.000596,95.6470786 C159.17895,95.2900139 159.254392,94.8541552 159.226924,94.3394896 C159.199456,93.8248239 159.058963,93.2424478 158.805442,92.5923439 Z M161.027399,87.2955003 C161.152514,87.2955003 161.251387,87.3115064 161.324023,87.3435191 C161.396658,87.3755318 161.490677,87.4407875 161.606083,87.5392881 L170.708505,95.5177972 C170.644133,95.3897464 170.586014,95.2653912 170.534147,95.144728 C170.48228,95.0240648 170.43426,94.9070971 170.390086,94.7938214 L167.465966,87.2955003 L168.693047,87.2955003 L172.821385,97.8817999 L172.114009,97.8817999 C172.003331,97.8817999 171.903017,97.8621 171.813064,97.8226998 C171.723112,97.7832996 171.6238,97.7168126 171.515127,97.6232371 L162.422804,89.6521155 C162.480444,89.7752413 162.534716,89.8959027 162.585623,90.0141034 C162.63653,90.1323042 162.681189,90.2406532 162.719601,90.3391538 L165.661006,97.8817999 L164.433924,97.8817999 L160.305586,87.2955003 L161.027399,87.2955003 Z M178.480824,87.2955003 L178.950412,88.4996642 L175.60842,88.4996642 L179.267171,97.8817999 L177.866855,97.8817999 L174.208104,88.4996642 L170.851676,88.4996642 L170.382088,87.2955003 L178.480824,87.2955003 Z M186.54347,87.2955003 L186.998653,88.4627267 L182.032583,88.4627267 L183.403894,91.9791807 L187.42439,91.9791807 L187.862287,93.1020819 L183.841792,93.1020819 L185.250555,96.7145735 L190.216625,96.7145735 L190.671808,97.8817999 L184.298204,97.8817999 L180.169866,87.2955003 L186.54347,87.2955003 Z M189.495683,87.2955003 C189.620798,87.2955003 189.719671,87.3115064 189.792306,87.3435191 C189.864942,87.3755318 189.958961,87.4407875 190.074367,87.5392881 L199.176789,95.5177972 C199.112417,95.3897464 199.054298,95.2653912 199.002431,95.144728 C198.950563,95.0240648 198.902544,94.9070971 198.858369,94.7938214 L195.93425,87.2955003 L197.161331,87.2955003 L201.289669,97.8817999 L200.582293,97.8817999 C200.471615,97.8817999 200.371301,97.8621 200.281348,97.8226998 C200.191395,97.7832996 200.092084,97.7168126 199.983411,97.6232371 L190.891088,89.6521155 C190.948727,89.7752413 191.003,89.8959027 191.053907,90.0141034 C191.104814,90.1323042 191.149472,90.2406532 191.187885,90.3391538 L194.12929,97.8817999 L192.902208,97.8817999 L188.77387,87.2955003 L189.495683,87.2955003 Z M210.934739,92.5923439 C211.243958,93.3852737 211.402617,94.1067798 211.41072,94.7568838 C211.418824,95.4069878 211.289383,95.9635079 211.022395,96.4264607 C210.755406,96.8894136 210.358587,97.2477041 209.831925,97.5013432 C209.305262,97.7549822 208.661784,97.8817999 207.901471,97.8817999 L204.032557,97.8817999 L199.904219,87.2955003 L203.773133,87.2955003 C204.533446,87.2955003 205.275834,87.422318 206.00032,87.675957 C206.724806,87.9295961 207.40155,88.2891179 208.030574,88.7545332 C208.659598,89.2199486 209.223571,89.7776999 209.722509,90.4278039 C210.221448,91.0779079 210.62552,91.799414 210.934739,92.5923439 Z M209.498332,92.5923439 C209.244811,91.9422399 208.931566,91.361095 208.558586,90.8488919 C208.185606,90.3366887 207.771181,89.9032926 207.315298,89.5486904 C206.859414,89.1940882 206.36882,88.9232156 205.843498,88.7360645 C205.318177,88.5489133 204.778828,88.4553392 204.225436,88.4553392 L201.764055,88.4553392 L204.987789,96.721961 L207.449169,96.721961 C208.002562,96.721961 208.468928,96.6283869 208.848283,96.4412357 C209.227638,96.2540846 209.507448,95.9844432 209.687724,95.6323036 C209.867999,95.2801639 209.944881,94.847999 209.918373,94.3357958 C209.891865,93.8235927 209.751853,93.2424478 209.498332,92.5923439 Z M227.520334,97.8817999 L225.629186,97.8817999 C225.417453,97.8817999 225.223331,97.8313191 225.046813,97.7303559 C224.870296,97.6293928 224.724843,97.5001127 224.61045,97.3425118 L223.257941,95.4660846 L219.2591,95.4660846 L219.370091,97.3425118 C219.375747,97.4804126 219.330407,97.6047677 219.23407,97.7155809 C219.137733,97.8263941 218.988512,97.8817999 218.786404,97.8817999 L216.880819,97.8817999 L216.754361,87.1182001 L219.251832,87.1182001 L227.520334,97.8817999 Z M219.159505,93.7669577 L222.032319,93.7669577 L219.915609,90.8193418 C219.780068,90.6321907 219.620738,90.4117989 219.437615,90.1581598 C219.254491,89.9045208 219.064411,89.6299545 218.867369,89.3344527 C218.907532,89.6348795 218.936647,89.9131395 218.954713,90.1692411 C218.972779,90.4253427 218.982213,90.6469657 218.983014,90.8341169 L219.159505,93.7669577 Z M229.475535,93.8999328 L231.028343,97.8817999 L228.588617,97.8817999 L224.391137,87.1182001 L227.812528,87.1182001 C228.572841,87.1182001 229.252472,87.1982307 229.851442,87.3582942 C230.450412,87.5183576 230.975214,87.7412119 231.425863,88.0268637 C231.876512,88.3125154 232.254689,88.6498749 232.560405,89.0389523 C232.866121,89.4280297 233.108284,89.851576 233.286901,90.3096038 C233.423264,90.6592809 233.506229,90.989253 233.535798,91.2995299 C233.565366,91.6098068 233.5413,91.8966855 233.463599,92.1601746 C233.385898,92.4236637 233.256252,92.6588304 233.074658,92.8656817 C232.893064,93.0725329 232.657369,93.2424439 232.367566,93.3754197 C232.563828,93.4591453 232.756943,93.5625693 232.946915,93.6856951 C233.136888,93.8088209 233.319375,93.959032 233.494384,94.1363331 L237.192622,97.8817999 L234.983875,97.8817999 C234.574846,97.8817999 234.219853,97.7242013 233.918886,97.4089993 L230.953477,94.2840833 C230.822706,94.1461824 230.694069,94.0476833 230.567561,93.9885829 C230.441053,93.9294826 230.283966,93.8999328 230.096294,93.8999328 L229.475535,93.8999328 Z M228.804284,92.1786434 L229.785949,92.1786434 C230.117984,92.1786434 230.383886,92.13555 230.583663,92.049362 C230.783439,91.963174 230.928143,91.8437438 231.01778,91.6910678 C231.107416,91.5383919 231.146065,91.3598622 231.133729,91.1554735 C231.121394,90.9510847 231.069132,90.7306929 230.976942,90.4942915 C230.792563,90.0214886 230.498143,89.6521168 230.093673,89.3861652 C229.689204,89.1202136 229.171783,88.9872398 228.541397,88.9872398 L227.559732,88.9872398 L228.804284,92.1786434 Z M241.864086,92.9617193 C242.033312,93.1488704 242.201806,93.3434062 242.369576,93.5453324 C242.537345,93.7472587 242.703423,93.9541068 242.867815,94.1658831 C242.865114,93.9491818 242.869626,93.7386399 242.88135,93.5342512 C242.893075,93.3298624 242.909606,93.1316329 242.930944,92.9395567 L243.510176,87.5023506 C243.521805,87.408775 243.5428,87.3361319 243.573161,87.2844191 C243.603522,87.2327063 243.645178,87.1945378 243.698133,87.1699127 C243.751087,87.1452875 243.816303,87.1305127 243.893782,87.1255876 C243.971261,87.1206626 244.062933,87.1182001 244.168799,87.1182001 L246.031075,87.1182001 L250.228555,97.8817999 L248.077554,97.8817999 L245.663355,91.6910678 C245.546197,91.390641 245.433875,91.0655939 245.326384,90.7159167 L244.697986,96.2491605 C244.67859,96.4215366 244.612793,96.5520479 244.500595,96.6406985 C244.388397,96.729349 244.238464,96.7736736 244.050792,96.7736736 L243.718758,96.7736736 C243.531086,96.7736736 243.346582,96.729349 243.165242,96.6406985 C242.983902,96.5520479 242.816314,96.4215366 242.662475,96.2491605 L237.701163,90.7085292 C237.787633,90.8809053 237.868809,91.0520475 237.944695,91.221961 C238.02058,91.3918746 238.086371,91.548242 238.142069,91.6910678 L240.556268,97.8817999 L238.405267,97.8817999 L234.207787,87.1182001 L236.070063,87.1182001 C236.175929,87.1182001 236.269521,87.1206626 236.350842,87.1255876 C236.432162,87.1305127 236.508901,87.1452875 236.581062,87.1699127 C236.653222,87.1945378 236.724648,87.2327063 236.795342,87.2844191 C236.866035,87.3361319 236.943687,87.408775 237.0283,87.5023506 L241.864086,92.9617193 Z M260.456932,92.4963062 C260.760388,93.274461 260.911586,93.9984296 260.91053,94.6682337 C260.909474,95.3380378 260.767259,95.9204139 260.483882,96.4153794 C260.200505,96.910345 259.777916,97.2981853 259.216102,97.578912 C258.654288,97.8596387 257.964362,98 257.146304,98 C256.328246,98 255.527644,97.8596387 254.744474,97.578912 C253.961304,97.2981853 253.233817,96.910345 252.56199,96.4153794 C251.890164,95.9204139 251.292528,95.3380378 250.769065,94.6682337 C250.245602,93.9984296 249.832148,93.274461 249.528691,92.4963062 C249.225234,91.7181515 249.074036,90.9941829 249.075092,90.3243788 C249.076149,89.6545747 249.220046,89.0734298 249.50679,88.5809268 C249.793533,88.0884238 250.219008,87.7018147 250.783228,87.421088 C251.347448,87.1403613 252.038577,87 252.856635,87 C253.674694,87 254.474573,87.1415925 255.256297,87.4247817 C256.038021,87.707971 256.763102,88.0958113 257.431562,88.5883143 C258.100022,89.0808173 258.695975,89.6619622 259.219438,90.3317663 C259.742902,91.0015704 260.155395,91.7230765 260.456932,92.4963062 Z M257.95946,92.4963062 C257.752034,91.964403 257.497889,91.485451 257.197017,91.0594359 C256.896145,90.6334207 256.561777,90.2726677 256.193905,89.9771659 C255.826033,89.6816641 255.428512,89.4551161 255.001333,89.2975151 C254.574153,89.1399141 254.127182,89.0611148 253.660408,89.0611148 C253.188822,89.0611148 252.799701,89.1399141 252.493034,89.2975151 C252.186368,89.4551161 251.964338,89.6816641 251.82694,89.9771659 C251.689541,90.2726677 251.636539,90.6334207 251.667933,91.0594359 C251.699327,91.485451 251.818736,91.964403 252.026162,92.4963062 C252.235509,93.0331345 252.490614,93.514549 252.791486,93.9405641 C253.092359,94.3665793 253.426726,94.7273323 253.794598,95.0228341 C254.162471,95.3183359 254.560714,95.5436527 254.989339,95.6987911 C255.417965,95.8539296 255.868064,95.9314976 256.33965,95.9314976 C256.806425,95.9314976 257.192417,95.8539296 257.497637,95.6987911 C257.802858,95.5436527 258.024165,95.3183359 258.161564,95.0228341 C258.298962,94.7273323 258.351964,94.3665793 258.32057,93.9405641 C258.289176,93.514549 258.168807,93.0331345 257.95946,92.4963062 Z M264.82991,93.8999328 L266.382718,97.8817999 L263.942992,97.8817999 L259.745512,87.1182001 L263.166903,87.1182001 C263.927216,87.1182001 264.606847,87.1982307 265.205817,87.3582942 C265.804787,87.5183576 266.329589,87.7412119 266.780238,88.0268637 C267.230887,88.3125154 267.609064,88.6498749 267.91478,89.0389523 C268.220496,89.4280297 268.462659,89.851576 268.641276,90.3096038 C268.777639,90.6592809 268.860604,90.989253 268.890173,91.2995299 C268.919741,91.6098068 268.895675,91.8966855 268.817974,92.1601746 C268.740273,92.4236637 268.610627,92.6588304 268.429033,92.8656817 C268.247439,93.0725329 268.011744,93.2424439 267.721941,93.3754197 C267.918203,93.4591453 268.111317,93.5625693 268.30129,93.6856951 C268.491262,93.8088209 268.67375,93.959032 268.848759,94.1363331 L272.546996,97.8817999 L270.33825,97.8817999 C269.929221,97.8817999 269.574228,97.7242013 269.273261,97.4089993 L266.307852,94.2840833 C266.177081,94.1461824 266.048444,94.0476833 265.921936,93.9885829 C265.795428,93.9294826 265.638341,93.8999328 265.450668,93.8999328 L264.82991,93.8999328 Z M264.158659,92.1786434 L265.140324,92.1786434 C265.472359,92.1786434 265.738261,92.13555 265.938037,92.049362 C266.137814,91.963174 266.282518,91.8437438 266.372154,91.6910678 C266.461791,91.5383919 266.50044,91.3598622 266.488104,91.1554735 C266.475768,90.9510847 266.423506,90.7306929 266.331317,90.4942915 C266.146938,90.0214886 265.852518,89.6521168 265.448048,89.3861652 C265.043579,89.1202136 264.526158,88.9872398 263.895772,88.9872398 L262.914107,88.9872398 L264.158659,92.1786434 Z M277.403978,93.7891202 L279,97.8817999 L276.560274,97.8817999 L274.964252,93.7891202 L268.551624,87.1182001 L270.702625,87.1182001 C270.914358,87.1182001 271.102465,87.1686809 271.266953,87.2696441 C271.43144,87.3706072 271.582908,87.4998873 271.721361,87.6574882 L274.429799,90.7897918 C274.648053,91.0409683 274.848997,91.2724413 275.032638,91.4842176 C275.216279,91.6959939 275.386926,91.9053045 275.544586,92.1121558 C275.534181,91.9003795 275.538212,91.6886064 275.55668,91.4768301 C275.575148,91.2650538 275.594112,91.0360433 275.613572,90.7897918 L275.864565,87.6574882 C275.86847,87.5934629 275.883201,87.5294384 275.908761,87.465413 C275.93432,87.4013876 275.969497,87.3435194 276.014294,87.2918066 C276.059091,87.2400938 276.117353,87.1982316 276.189081,87.1662189 C276.260809,87.1342062 276.347198,87.1182001 276.448253,87.1182001 L278.61369,87.1182001 L277.403978,93.7891202 Z" id="Frontend-Armory" fill="#FFFFFF" transform="translate(205.000000, 92.500000) rotate(-30.000000) translate(-205.000000, -92.500000) "></path>
        </g>
    </g>
</svg>