<?xml version="1.0" encoding="UTF-8"?>
<svg width="452px" height="397px" viewBox="0 0 452 397" version="1.1" xmlns="http://www.w3.org/2000/svg" xmlns:xlink="http://www.w3.org/1999/xlink">
    <!-- Generator: Sketch 52.4 (67378) - http://www.bohemiancoding.com/sketch -->
    <title>gear copy</title>
    <desc>Created with Sketch.</desc>
    <g id="Gear" stroke="none" stroke-width="1" fill="none" fill-rule="evenodd">
        <g id="gear-copy" transform="translate(3.000000, 3.000000)" stroke="#FFFFFF">
            <g id="Group">
                <path d="M172.358003,388.182807 L166.635208,376.825955 C166.635208,365.209473 166.635208,359.401232 166.635208,359.401232 C160.303311,357.812401 157.137363,357.017985 157.137363,357.017985 C151.749575,356.566668 149.055681,356.34101 149.055681,356.34101 C142.08761,361.668267 138.603574,364.331896 138.603574,364.331896 C122.934567,371.579093 114.661694,375.194236 113.784956,375.177327 C104.904673,371.588316 100.464531,369.79381 100.464531,369.79381 C100.629727,347.351264 100.712325,336.129991 100.712325,336.129991 C98.3565134,336.495533 96.9094336,336.78437 96.3710855,336.996501 C81.1727483,342.126076 73.3060976,344.734366 72.7711334,344.82137 C59.7920211,346.398211 53.3024649,347.186632 53.3024649,347.186632 C47.2255911,342.339283 44.1871542,339.915609 44.1871542,339.915609 C45.0343603,319.608823 45.2841539,309.448821 44.9365348,309.435601 C24.947822,308.918186 14.9534657,308.659478 14.9534657,308.659478 C11.6153995,303.800754 9.94636649,301.371392 9.94636649,301.371392 C9.9543648,279.169262 9.95836396,268.068197 9.95836396,268.068197 C3.65538389,265.794397 0.503893862,264.657498 0.503893862,264.657498 C0.682933073,168.40748 0.772452679,120.282471 0.772452679,120.282471 C4.94603511,118.738218 7.03282633,117.966092 7.03282633,117.966092 C11.5161897,116.728045 13.7578713,116.109022 13.7578713,116.109022 C13.5440702,94.8325828 13.4371697,84.1943631 13.4371697,84.1943631 C17.2551347,79.2849121 19.1641172,76.8301866 19.1641172,76.8301866 C26.2629296,76.3038556 29.8123359,76.0406901 29.8123359,76.0406901 C39.3177183,76.2211552 44.0704095,76.3113878 44.0704095,76.3113878 C48.9450751,76.7414912 51.3824078,76.956543 51.3824078,76.956543 C51.5669843,56.1341869 51.6592726,45.7230089 51.6592726,45.7230089 C57.6826193,41.6359502 60.6942926,39.5924208 60.6942926,39.5924208 C68.2834633,40.4111238 72.0780486,40.8204753 72.0780486,40.8204753 C81.7458584,43.0659903 86.5797633,44.1887478 86.5797633,44.1887478 C94.6374507,48.0403103 99.0937428,50.0517126 99.9486396,50.2229546 C103.156887,50.8747197 104.761011,51.2006022 104.761011,51.2006022 C107.673013,50.9712547 109.129014,50.8565809 109.129014,50.8565809 C109.537235,28.0749331 109.741346,16.6841092 109.741346,16.6841092 C118.464739,14.3048593 122.826436,13.1152344 122.826436,13.1152344 C130.598953,15.8446542 134.485211,17.2093641 134.485211,17.2093641 C141.203181,21.1460865 144.562166,23.1144477 144.562166,23.1144477 C150.759014,28.4247956 153.857438,31.0799696 153.857438,31.0799696 C157.700014,32.3610569 159.621301,33.0016005 159.621301,33.0016005 C167.957392,31.8453324 172.125437,31.2671984 172.125437,31.2671984 C174.674746,29.2996058 175.9494,28.3158095 175.9494,28.3158095 C176.069068,19.0167824 176.128901,14.3672689 176.128901,14.3672689 C178.294906,7.98181604 179.377909,4.78908963 179.377909,4.78908963 C181.446396,2.1571271 182.651066,0.834228516 182.991917,0.82039388 C191.94357,0.32695855 196.419396,0.0802408854 196.419396,0.0802408854 C200.962132,3.70337818 203.421152,5.6136339 203.796458,5.81100803 C207.964195,9.58724863 210.048064,11.4753689 210.048064,11.4753689 C212.848705,17.3535518 214.249026,20.2926432 214.249026,20.2926432 C215.523219,23.2640155 216.160315,24.7497016 216.160315,24.7497016 C219.278428,26.1058033 220.837484,26.7838542 220.837484,26.7838542 C230.015551,26.8149052 234.604584,26.8304308 234.604584,26.8304308 C237.520278,25.0903411 238.978124,24.2202962 238.978124,24.2202962 C241.177661,19.3028519 242.277429,16.8441298 242.277429,16.8441298 C246.254746,11.5983435 248.243404,8.9754503 248.243404,8.9754503 C255.317913,3.83449978 258.855168,1.26402452 258.855168,1.26402452 C268.716476,2.2053946 273.64713,2.67607964 273.64713,2.67607964 C275.948183,6.40067093 277.09871,8.26296658 277.09871,8.26296658 C278.21909,13.3292101 278.779279,15.8623318 278.779279,15.8623318 C279.181964,26.2081796 279.383306,31.3811035 279.383306,31.3811035 C283.491056,32.960404 285.544931,33.7500543 285.544931,33.7500543 C293.459572,34.0854673 297.416892,34.2531738 297.416892,34.2531738 C304.716893,28.6366193 308.366893,25.828342 308.366893,25.828342 C315.712731,22.1907552 319.385649,20.3719618 319.385649,20.3719618 C328.361605,17.1454174 332.849583,15.5321452 332.849583,15.5321452 C340.819288,18.7949671 344.804141,20.426378 344.804141,20.426378 C344.605722,42.8237305 344.506512,54.0224067 344.506512,54.0224067 C348.437684,54.0623734 350.40327,54.0823568 350.40327,54.0823568 C359.27094,50.9385127 363.704776,49.3665907 363.704776,49.3665907 C371.999029,46.9676649 376.146155,45.768202 376.146155,45.768202 C387.079852,44.635914 392.546701,44.06977 392.546701,44.06977 C397.895728,48.8494828 400.570241,51.2393392 400.570241,51.2393392 C400.718825,71.0960377 400.793117,81.0243869 400.793117,81.0243869 C411.062031,80.9324635 416.196488,80.8865017 416.196488,80.8865017 C425.912903,81.6277308 430.771111,81.9983453 430.771111,81.9983453 C433.788937,87.3037742 435.297849,89.9564887 435.297849,89.9564887 C435.501807,111.54805 435.603785,122.343831 435.603785,122.343831 C441.829858,124.737531 444.942895,125.93438 444.942895,125.93438 C445.328044,127.128156 445.520619,127.725043 445.520619,127.725043 C445.165617,223.014015 444.988116,270.658502 444.988116,270.658502 C436.740315,273.319056 432.616414,274.649333 432.616414,274.649333 C432.510283,296.542182 432.457217,307.488607 432.457217,307.488607 C428.754612,312.088469 426.90331,314.388401 426.90331,314.388401 C405.434909,314.27096 394.700708,314.21224 394.700708,314.21224 C394.387544,335.056116 394.230961,345.478054 394.230961,345.478054 C388.529701,349.359746 385.67907,351.300591 385.67907,351.300591 C373.537935,350.004132 367.467368,349.355903 367.467368,349.355903 C356.146675,345.141873 350.486329,343.034858 350.486329,343.034858 C345.045014,340.759214 342.324356,339.621392 342.324356,339.621392 C337.933281,339.878101 335.737743,340.006456 335.737743,340.006456 C335.750356,362.681116 335.756663,374.018446 335.756663,374.018446 C327.400269,376.673159 323.222072,378.000515 323.222072,378.000515 C315.808249,375.725486 312.101337,374.587972 312.101337,374.587972 C301.975163,368.306125 296.912075,365.165202 296.912075,365.165202 C292.020798,360.559191 289.575159,358.256185 289.575159,358.256185 C285.942694,358.00132 284.126461,357.873888 284.126461,357.873888 C279.210881,358.712267 276.753091,359.131456 276.753091,359.131456 C272.648417,360.553042 270.59608,361.263835 270.59608,361.263835 C270.760968,370.874602 270.843412,375.679986 270.843412,375.679986 C269.442477,379.973949 268.742009,382.120931 268.742009,382.120931 C264.882822,387.188712 262.953228,389.722602 262.953228,389.722602 C253.004247,390.184986 248.029756,390.416178 248.029756,390.416178 C242.186679,385.233109 239.265141,382.641574 239.265141,382.641574 C234.669186,375.924705 232.371208,372.566271 232.371208,372.566271 C230.947816,368.749448 230.23612,366.841037 230.23612,366.841037 C227.550531,365.332755 226.207737,364.578613 226.207737,364.578613 C216.325819,364.312066 211.38486,364.178792 211.38486,364.178792 C208.521463,366.034786 207.089764,366.962782 207.089764,366.962782 C204.434631,372.459129 203.107065,375.207303 203.107065,375.207303 C197.676516,381.37755 194.961242,384.462674 194.961242,384.462674 L187.47851,389.667725 L172.358003,388.182807 Z" id="Path-2" stroke-width="6" stroke-linejoin="round" fill-rule="nonzero"></path>
                <path d="M172.358003,388.182807 L166.635208,376.825955 C166.635208,365.209473 166.635208,359.401232 166.635208,359.401232 C160.303311,357.812401 157.137363,357.017985 157.137363,357.017985 C151.749575,356.566668 149.055681,356.34101 149.055681,356.34101 C142.08761,361.668267 138.603574,364.331896 138.603574,364.331896 C122.934567,371.579093 114.661694,375.194236 113.784956,375.177327 C104.904673,371.588316 100.464531,369.79381 100.464531,369.79381 C100.629727,347.351264 100.712325,336.129991 100.712325,336.129991 C98.3565134,336.495533 96.9094336,336.78437 96.3710855,336.996501 C81.1727483,342.126076 73.3060976,344.734366 72.7711334,344.82137 C59.7920211,346.398211 53.3024649,347.186632 53.3024649,347.186632 C47.2255911,342.339283 44.1871542,339.915609 44.1871542,339.915609 C45.0343603,319.608823 45.2841539,309.448821 44.9365348,309.435601 C24.947822,308.918186 14.9534657,308.659478 14.9534657,308.659478 C11.6153995,303.800754 9.94636649,301.371392 9.94636649,301.371392 C9.9543648,279.169262 9.95836396,268.068197 9.95836396,268.068197 C3.65538389,265.794397 0.503893862,264.657498 0.503893862,264.657498 C0.682933073,168.40748 0.772452679,120.282471 0.772452679,120.282471 C4.94603511,118.738218 7.03282633,117.966092 7.03282633,117.966092 C11.5161897,116.728045 13.7578713,116.109022 13.7578713,116.109022 C13.5440702,94.8325828 13.4371697,84.1943631 13.4371697,84.1943631 C17.2551347,79.2849121 19.1641172,76.8301866 19.1641172,76.8301866 C26.2629296,76.3038556 29.8123359,76.0406901 29.8123359,76.0406901 C39.3177183,76.2211552 44.0704095,76.3113878 44.0704095,76.3113878 C48.9450751,76.7414912 51.3824078,76.956543 51.3824078,76.956543 C51.5669843,56.1341869 51.6592726,45.7230089 51.6592726,45.7230089 C57.6826193,41.6359502 60.6942926,39.5924208 60.6942926,39.5924208 C68.2834633,40.4111238 72.0780486,40.8204753 72.0780486,40.8204753 C81.7458584,43.0659903 86.5797633,44.1887478 86.5797633,44.1887478 C94.6374507,48.0403103 99.0937428,50.0517126 99.9486396,50.2229546 C103.156887,50.8747197 104.761011,51.2006022 104.761011,51.2006022 C107.673013,50.9712547 109.129014,50.8565809 109.129014,50.8565809 C109.537235,28.0749331 109.741346,16.6841092 109.741346,16.6841092 C118.464739,14.3048593 122.826436,13.1152344 122.826436,13.1152344 C130.598953,15.8446542 134.485211,17.2093641 134.485211,17.2093641 C141.203181,21.1460865 144.562166,23.1144477 144.562166,23.1144477 C150.759014,28.4247956 153.857438,31.0799696 153.857438,31.0799696 C157.700014,32.3610569 159.621301,33.0016005 159.621301,33.0016005 C167.957392,31.8453324 172.125437,31.2671984 172.125437,31.2671984 C174.674746,29.2996058 175.9494,28.3158095 175.9494,28.3158095 C176.069068,19.0167824 176.128901,14.3672689 176.128901,14.3672689 C178.294906,7.98181604 179.377909,4.78908963 179.377909,4.78908963 C181.446396,2.1571271 182.651066,0.834228516 182.991917,0.82039388 C191.94357,0.32695855 196.419396,0.0802408854 196.419396,0.0802408854 C200.962132,3.70337818 203.421152,5.6136339 203.796458,5.81100803 C207.964195,9.58724863 210.048064,11.4753689 210.048064,11.4753689 C212.848705,17.3535518 214.249026,20.2926432 214.249026,20.2926432 C215.523219,23.2640155 216.160315,24.7497016 216.160315,24.7497016 C219.278428,26.1058033 220.837484,26.7838542 220.837484,26.7838542 C230.015551,26.8149052 234.604584,26.8304308 234.604584,26.8304308 C237.520278,25.0903411 238.978124,24.2202962 238.978124,24.2202962 C241.177661,19.3028519 242.277429,16.8441298 242.277429,16.8441298 C246.254746,11.5983435 248.243404,8.9754503 248.243404,8.9754503 C255.317913,3.83449978 258.855168,1.26402452 258.855168,1.26402452 C268.716476,2.2053946 273.64713,2.67607964 273.64713,2.67607964 C275.948183,6.40067093 277.09871,8.26296658 277.09871,8.26296658 C278.21909,13.3292101 278.779279,15.8623318 278.779279,15.8623318 C279.181964,26.2081796 279.383306,31.3811035 279.383306,31.3811035 C283.491056,32.960404 285.544931,33.7500543 285.544931,33.7500543 C293.459572,34.0854673 297.416892,34.2531738 297.416892,34.2531738 C304.716893,28.6366193 308.366893,25.828342 308.366893,25.828342 C315.712731,22.1907552 319.385649,20.3719618 319.385649,20.3719618 C328.361605,17.1454174 332.849583,15.5321452 332.849583,15.5321452 C340.819288,18.7949671 344.804141,20.426378 344.804141,20.426378 C344.605722,42.8237305 344.506512,54.0224067 344.506512,54.0224067 C348.437684,54.0623734 350.40327,54.0823568 350.40327,54.0823568 C359.27094,50.9385127 363.704776,49.3665907 363.704776,49.3665907 C371.999029,46.9676649 376.146155,45.768202 376.146155,45.768202 C387.079852,44.635914 392.546701,44.06977 392.546701,44.06977 C397.895728,48.8494828 400.570241,51.2393392 400.570241,51.2393392 C400.718825,71.0960377 400.793117,81.0243869 400.793117,81.0243869 C411.062031,80.9324635 416.196488,80.8865017 416.196488,80.8865017 C425.912903,81.6277308 430.771111,81.9983453 430.771111,81.9983453 C433.788937,87.3037742 435.297849,89.9564887 435.297849,89.9564887 C435.501807,111.54805 435.603785,122.343831 435.603785,122.343831 C441.829858,124.737531 444.942895,125.93438 444.942895,125.93438 C445.328044,127.128156 445.520619,127.725043 445.520619,127.725043 C445.165617,223.014015 444.988116,270.658502 444.988116,270.658502 C436.740315,273.319056 432.616414,274.649333 432.616414,274.649333 C432.510283,296.542182 432.457217,307.488607 432.457217,307.488607 C428.754612,312.088469 426.90331,314.388401 426.90331,314.388401 C405.434909,314.27096 394.700708,314.21224 394.700708,314.21224 C394.387544,335.056116 394.230961,345.478054 394.230961,345.478054 C388.529701,349.359746 385.67907,351.300591 385.67907,351.300591 C373.537935,350.004132 367.467368,349.355903 367.467368,349.355903 C356.146675,345.141873 350.486329,343.034858 350.486329,343.034858 C345.045014,340.759214 342.324356,339.621392 342.324356,339.621392 C337.933281,339.878101 335.737743,340.006456 335.737743,340.006456 C335.750356,362.681116 335.756663,374.018446 335.756663,374.018446 C327.400269,376.673159 323.222072,378.000515 323.222072,378.000515 C315.808249,375.725486 312.101337,374.587972 312.101337,374.587972 C301.975163,368.306125 296.912075,365.165202 296.912075,365.165202 C292.020798,360.559191 289.575159,358.256185 289.575159,358.256185 C285.942694,358.00132 284.126461,357.873888 284.126461,357.873888 C279.210881,358.712267 276.753091,359.131456 276.753091,359.131456 C272.648417,360.553042 270.59608,361.263835 270.59608,361.263835 C270.760968,370.874602 270.843412,375.679986 270.843412,375.679986 C269.442477,379.973949 268.742009,382.120931 268.742009,382.120931 C264.882822,387.188712 262.953228,389.722602 262.953228,389.722602 C253.004247,390.184986 248.029756,390.416178 248.029756,390.416178 C242.186679,385.233109 239.265141,382.641574 239.265141,382.641574 C234.669186,375.924705 232.371208,372.566271 232.371208,372.566271 C230.947816,368.749448 230.23612,366.841037 230.23612,366.841037 C227.550531,365.332755 226.207737,364.578613 226.207737,364.578613 C216.325819,364.312066 211.38486,364.178792 211.38486,364.178792 C208.521463,366.034786 207.089764,366.962782 207.089764,366.962782 C204.434631,372.459129 203.107065,375.207303 203.107065,375.207303 C197.676516,381.37755 194.961242,384.462674 194.961242,384.462674 L187.47851,389.667725 L172.358003,388.182807 Z" id="Path-2" stroke-width="6" fill-rule="nonzero"></path>
                <path d="M13.5439486,84.5256415 L13.5439486,116.634528 M0.603193135,127.431583 L0.551181853,263.559149 M10.2957569,164.762574 L10.2957569,300.890141 M45.1090752,204.140066 L45.1090752,340.267633 M101.174511,232.932211 L101.174511,369.059777 M270.362931,372.094244 L270.362931,235.896108 M166.773861,236.46066 L166.773861,372.588227 M336.102329,370.330019 L336.102329,234.131884 M394.359118,344.925186 L394.359118,208.72705 M432.347661,306.46509 L432.347661,170.337524 M445.270992,263.559149 L445.270992,127.361014 M435.59703,122.985737 L435.59703,90.0300221 M400.714276,81.5617443 L400.714276,50.6525301 M344.647663,54.6043931 L344.647663,21.8603854 M279.118926,31.5283359 L279.118926,18.3319363 M175.529856,18.9670571 L175.529856,29.3406975 M109.718668,20.7312817 L109.718668,50.864237 M51.463056,46.1361152 L51.463056,77.1864674 M222.771038,364.119949 L214.861221,364.048204 M163.172605,358.051016 L155.830044,356.357361 M282.43773,358.051016 L274.882154,359.532965 M163.455056,32.9397156 L170.869407,31.457767 M223.052313,26.8707831 L230.89034,27.0119211 M282.649569,32.9397156 L289.99213,34.6333711 M335.043136,50.4408231 L340.974617,53.4752894 M373.952001,77.2570363 L377.694482,81.2088993 M394.570957,110.071613 L395.770198,114.517459 M394.570957,145.003259 L392.946861,149.449105 M373.810775,177.817836 L369.644616,181.69913 M334.903087,204.56348 L328.690332,207.385063 M282.43773,221.994019 L274.882154,223.404222 M222.771038,227.992382 L214.861221,227.921813 M163.172605,221.92345 L155.830044,220.300363 M110.777861,204.422342 L104.84638,201.387876 M71.9407862,177.676698 L68.0570787,173.654266 M51.2512174,144.862121 L50.0496218,140.275137 M51.3218302,109.930475 L52.8058772,105.41406 M72.0113991,77.1158984 L76.1069451,73.1640354 M89.4527762,119.457288 C89.5586955,95.3697418 108.440575,76.6430862 128.007399,65.3308784 C155.392244,49.3881692 189.998432,42.5935523 221.428217,42.4665282 C253.03218,42.1619054 287.786655,48.6272003 315.625776,64.0606367 C335.511535,75.0446988 355.351396,93.4890784 356.298785,117.693063 C357.184976,141.812365 339.203411,160.51785 319.934337,172.313455 C292.789576,188.654879 258.917763,195.76588 227.5021,196.377478 C195.865184,197.043179 160.562283,191.013059 132.457187,175.983042 C111.175647,164.813149 89.6304852,145.310234 89.4527762,119.457288 M52.8058772,127.431583 C52.9059121,96.8822703 76.6247728,73.2334282 101.38635,58.767963 C135.932516,38.5158413 179.72426,29.7041277 219.451057,29.3406975 C259.896928,28.8020209 303.621589,36.666934 339.491747,55.9452037 C366.129272,70.2918778 392.946861,94.9192764 393.088086,127.431583 C392.966868,158.019708 369.192694,181.630913 344.434647,196.165771 C309.564838,216.520218 266.413318,225.090821 226.371117,225.593037 C185.63691,226.012922 142.506574,218.310318 106.32925,198.988531 C79.6011049,184.393689 53.0024164,160.162653 52.8058772,127.431583 M110.989699,50.3702542 L117.133018,47.4769259 M284.485503,119.457288 C283.571067,145.231432 244.615127,155.414536 223.97028,154.953486 C202.905286,155.867354 163.916394,146.218222 161.336671,120.65696 C160.904755,94.7122741 199.234594,83.8752307 219.804121,83.9610897 C234.828184,83.4918059 252.114213,86.2769284 265.349418,93.6996092 C274.902161,98.8605541 284.567885,107.760479 284.485503,119.457288 M172.91718,124.891099 C173.550342,103.77686 205.973415,95.3838556 222.911087,96.0283856 C239.988808,95.4861806 272.030571,103.558096 272.975607,124.891099 C271.97055,146.187642 239.998223,154.26191 222.911087,153.753813 C211.207005,153.722057 199.312268,151.501486 188.87451,146.061794 C181.11298,141.887639 172.803023,134.443787 172.91718,124.891099" id="path2721" stroke-width="2" stroke-linecap="round" stroke-linejoin="round"></path>
                <path d="M48.1966173,103.296993 L48.1966173,109.859903" id="line2607" stroke-width="2" stroke-linecap="round" stroke-linejoin="round"></path>
                <path d="M18.2043976,77.3981743 L18.6280747,77.0453294 L19.4036394,76.8336225 M19.4048162,76.8336225 C33.426177,75.188189 47.8923989,75.8527136 61.6324851,79.1623989 M52.8058772,105.484629 C53.9203836,102.343133 50.1014046,100.346031 47.5805254,99.9096796 M47.5793485,99.9096796 C35.4904264,97.3574348 23.5792133,92.82573 13.8264001,85.0901934 M13.8264001,85.0901934 L13.5439486,84.6667795 L13.6145615,84.1727966 M13.6145615,84.1727966 L15.8035602,80.7854855 L18.2043976,77.3981743 M61.6324851,79.1623989 C64.8853843,79.8998447 69.4869892,79.4905446 72.0113991,77.1158984" id="path2609" stroke-width="2" stroke-linecap="round" stroke-linejoin="round"></path>
                <path d="M14.1754757,90.4534325 L14.1754757,111.271287" id="line2611" stroke-width="2" stroke-linecap="round" stroke-linejoin="round"></path>
                <path d="M50.0507987,140.345706 C49.4494125,137.40298 44.3699939,136.016299 41.7890938,136.182136 M41.7890938,136.182148 C28.2243628,136.188017 13.9829252,133.866298 1.32792334,128.913531 M1.32792334,128.913531 L0.763020442,128.560686 L0.621794716,128.066703 M0.621794716,128.066703 L0.621794716,124.467685 L0.904246168,120.868667 M0.904246168,120.868667 L1.11726164,120.445253 L1.68098766,120.092408 M1.68098766,120.092408 C14.3230439,115.436032 29.2741407,113.576539 42.707061,113.882338 M42.7082379,113.882338 C45.3809347,114.128153 50.374441,112.850855 51.3218302,109.930475 M10.2957569,268.004995 L5.70592084,266.593615 L1.32792334,264.970529 M1.32792334,264.970529 L0.763020442,264.617684 L0.621794716,264.195446 M0.621794716,264.19427 L0.551181853,263.487404" id="path2613" stroke-width="2" stroke-linecap="round" stroke-linejoin="round"></path>
                <path d="M50.0866808,142.392207 L50.0866808,146.273501" id="path2953" stroke-width="2" stroke-linecap="round" stroke-linejoin="round"></path>
                <path d="M42.5264271,139.922292 L42.5264271,147.332036" id="path2951" stroke-width="2" stroke-linecap="round" stroke-linejoin="round"></path>
                <path d="M68.1276916,173.724835 C66.0140132,171.199641 60.9087033,170.719772 57.8888265,171.396059 M45.1090752,309.428988 C35.0773411,310.321685 25.4892912,310.125268 15.5211088,308.652729 M15.5211088,308.652729 L14.8149801,308.441022 L14.391303,308.017608 M14.391303,308.017608 L12.2729171,304.630297 L10.3663698,301.172417 M10.3663698,301.172417 L10.2251441,300.819572" id="path2617" stroke-width="2" stroke-linecap="round" stroke-linejoin="round"></path>
                <path d="M51.9767442,145.356104 L51.9767442,146.061794" id="line2619" stroke-width="2" stroke-linecap="round" stroke-linejoin="round"></path>
                <path d="M57.8888265,171.396059 C44.1534478,174.278801 29.3906519,174.610476 15.5211088,172.525162 M15.5211088,172.525162 L14.8149801,172.313455 L14.391303,171.96061 M14.391303,171.96061 L12.2729171,168.50273 L10.3663698,165.04485 M10.3663698,165.04485 L10.2957569,164.621436 L10.6488212,164.198022 M10.6488212,164.198022 C20.396927,156.985872 33.6650839,152.34949 45.5315755,150.295933 M45.5315755,150.295933 C48.0053794,149.827825 52.135055,148.083595 51.2512174,144.862121" id="path2621" stroke-width="2" stroke-linecap="round" stroke-linejoin="round"></path>
                <path d="M57.8888265,176.265318 L57.8888265,185.721562 M15.5211088,177.888405 L15.5211088,303.360055 M68.1276916,176.477025 L68.1276916,181.910837 M14.391303,177.323853 L14.391303,302.724934 M10.3663698,170.408093 L10.3663698,295.879743" id="path2623" stroke-width="2" stroke-linecap="round" stroke-linejoin="round"></path>
                <path d="M104.916993,201.458445 C101.511099,199.78596 97.3484711,199.761261 93.9025634,201.316131 M93.9025634,201.316131 C81.707722,207.161595 68.2206652,209.926723 54.7830374,210.773551 M54.7818605,210.773551 L54.005119,210.701805 L53.2989904,210.419529 M54.7818605,346.830548 L54.005119,346.759979 L53.2989904,346.547096 M53.3001673,346.548272 L49.345847,343.726689 L45.4621395,340.833361 M45.4609626,340.832185 L45.249124,340.549909 L45.1078983,340.267633 M93.9025634,337.444873 C81.6688849,343.205655 68.2430259,346.098983 54.7830374,346.830548 M101.174511,336.456908 C98.7360139,336.115824 96.1103923,336.267548 93.9013865,337.444873" id="path2625" stroke-width="2" stroke-linecap="round" stroke-linejoin="round"></path>
                <path d="M45.4609626,210.13843 L45.4609626,335.539511 M71.9407862,178.94694 L71.9407862,181.275716" id="path2627" stroke-width="2" stroke-linecap="round" stroke-linejoin="round"></path>
                <path d="M53.3001673,210.420706 L49.345847,207.599122 L45.4621395,204.777539 M45.4609626,204.776363 L45.1785112,204.351773 L45.2503009,203.85779 M45.2503009,203.856614 C50.3885636,194.6356 60.3226165,188.082094 69.7517874,183.886768 M69.7517874,183.886768 C72.3915316,182.952905 74.3145553,179.993713 71.9407862,177.676698" id="path2629" stroke-width="2" stroke-linecap="round" stroke-linejoin="round"></path>
                <path d="M93.9025634,206.68055 L93.9025634,332.1522 M54.7818605,216.136793 L54.7818605,341.537874 M53.3001673,215.783948 L53.3001673,341.255598 M104.916993,206.114822 L104.916993,215.21822" id="path2631" stroke-width="2" stroke-linecap="round" stroke-linejoin="round"></path>
                <path d="M155.89948,220.300363 C152.51124,219.500581 148.094405,219.851074 145.448776,222.346864 M145.448776,222.346864 C137.034077,230.596378 125.48652,235.859648 114.236714,238.930574 M114.237891,238.930574 L113.462326,239.00232 L112.755021,238.861182 M112.755021,238.860005 L107.31783,237.024036 L102.021866,235.118673 M102.021866,235.119849 L101.45814,234.767004 L101.245124,234.344767 M102.021866,371.176847 L101.45814,370.894571 L101.245124,370.400588 M101.245124,370.400588 L101.174511,368.989208 M145.448776,358.403861 C136.928158,366.798042 125.644222,371.855485 114.236714,374.988748 M112.755021,374.987572 L107.31783,373.151602 L102.021866,371.175671 M114.237891,374.987572 L113.462326,375.127534 L112.755021,374.987572 M155.89948,356.357361 C152.621866,355.606977 147.992016,356.051562 145.448776,358.403861" id="path2633" stroke-width="2" stroke-linecap="round" stroke-linejoin="round"></path>
                <path d="M114.237891,244.293817 L114.237891,369.694898 M102.021866,240.483092 L102.021866,365.884173 M112.755021,244.223248 L112.755021,369.694898 M101.245124,239.706833 L101.245124,365.107914 M110.777861,206.468843 L110.777861,210.350137" id="path2635" stroke-width="2" stroke-linecap="round" stroke-linejoin="round"></path>
                <path d="M101.245124,234.343591 C100.674337,224.908518 105.698442,216.835426 112.472569,210.701805 M112.472569,210.702982 C115.03817,208.391847 113.458796,205.670237 110.779038,204.422342" id="path2637" stroke-width="2" stroke-linecap="round" stroke-linejoin="round"></path>
                <path d="M155.930233,225.663606 L155.930233,351.064699" id="line2639" stroke-width="2" stroke-linecap="round" stroke-linejoin="round"></path>
                <path d="M214.931833,364.04938 C212.182639,363.872957 207.29976,364.940901 206.387677,368.001243" id="path2641" stroke-width="2" stroke-linecap="round" stroke-linejoin="round"></path>
                <path d="M145.534884,227.710106 L145.534884,353.111187" id="line2643" stroke-width="2" stroke-linecap="round" stroke-linejoin="round"></path>
                <path d="M214.931833,227.921813 C212.449791,227.63248 207.050261,229.008576 206.387677,231.8725 M206.388854,231.873676 C203.363093,241.535746 195.370894,248.610286 186.898527,253.608923 M186.898527,253.608923 L186.192398,253.891199 L185.415657,253.891199 M185.415657,253.891199 L179.272338,253.256078 L173.127842,252.479819 M173.129019,252.479819 L172.42289,252.266936 L171.9286,251.914091 M171.9286,251.915267 C166.689126,244.486706 165.278045,236.080764 168.46857,227.498399 M168.46857,227.498399 C169.613675,224.368665 165.647586,222.350392 163.172605,221.92345 M166.773861,359.462396 L165.714668,358.897844 L164.514249,358.403861 L163.171428,358.051016 M185.415657,390.018765 L173.129019,388.607385 M186.898527,389.736489 L186.192398,389.948196 L185.415657,390.018765 M206.388854,368.001243 C203.307779,377.656256 195.380309,384.71433 186.898527,389.736489 M173.129019,388.607385 L172.42289,388.395679 L171.9286,387.973441 M171.9286,387.972265 C168.695708,383.211211 166.773861,378.403111 166.773861,372.588227" id="path2645" stroke-width="2" stroke-linecap="round" stroke-linejoin="round"></path>
                <path d="M173.129019,257.843062 L173.129019,383.314712 M185.415657,259.254441 L185.415657,384.726091 M186.898527,258.972165 L186.898527,384.443816 M206.388854,237.236919 L206.388854,362.708569 M171.9286,257.27851 L171.9286,382.679591 M214.931833,233.285056 L214.931833,358.756706 M163.172605,227.286692 L163.172605,352.758343" id="path2647" stroke-width="2" stroke-linecap="round" stroke-linejoin="round"></path>
                <path d="M274.952767,223.405398 C272.377751,223.932313 268.589371,225.568338 269.233125,228.83921 M262.666129,389.807058 L256.452197,390.370434 L250.239442,390.865593 M250.238265,390.865593 L249.389734,390.793848 L248.755395,390.582141 M248.756572,390.583317 C240.837339,385.49647 233.113469,377.797394 231.103356,368.283519 M263.866547,389.242506 L263.372257,389.596527 L262.664952,389.808234 M270.362931,372.094244 C270.314679,378.591295 267.784384,384.16742 263.866547,389.24133 M231.103356,368.283519 C230.23011,365.250229 225.510817,364.005862 222.771038,364.119949 M274.952767,359.532965 L273.609946,359.88581 L272.338914,360.379793 L271.210285,360.944344 L270.361754,361.650034" id="path2649" stroke-width="2" stroke-linecap="round" stroke-linejoin="round"></path>
                <path d="M231.103356,237.589764 L231.103356,362.990845 M222.771038,233.355625 L222.771038,358.827275" id="path2651" stroke-width="2" stroke-linecap="round" stroke-linejoin="round"></path>
                <path d="M269.233125,228.83921 C271.968197,237.18164 269.397888,246.506155 263.866547,253.116116 M263.866547,253.11494 L263.372257,253.467785 L262.664952,253.679492 M262.666129,253.679492 L256.452197,254.244044 L250.239442,254.738026 M250.238265,254.738026 L249.389734,254.738026 L248.755395,254.45575 M248.756572,254.45575 C240.843223,249.347732 233.152306,241.741572 231.103356,232.226521 M231.103356,232.226521 C230.046517,228.901546 225.775615,228.140577 222.771038,227.992382" id="path2653" stroke-width="2" stroke-linecap="round" stroke-linejoin="round"></path>
                <path d="M274.059197,228.768641 L274.059197,354.240279" id="line2655" stroke-width="2" stroke-linecap="round" stroke-linejoin="round"></path>
                <path d="M336.102317,370.330031 L335.891668,373.576181" id="line2657" stroke-width="2" stroke-linecap="round" stroke-linejoin="round"></path>
                <path d="M250.238265,260.101269 L250.238265,385.572919 M262.666129,259.042734 L262.666129,384.514385 M248.756572,259.818993 L248.756572,385.290643 M263.866547,258.478182 L263.866547,383.949833" id="path2659" stroke-width="2" stroke-linecap="round" stroke-linejoin="round"></path>
                <path d="M328.759768,207.385063 C326.136501,208.376557 324.126388,211.199317 326.57077,213.595134 M326.57077,213.59631 C332.971826,219.992212 337.119154,228.22526 335.891668,237.448626 M335.891668,237.448626 L335.610393,237.942609 L335.044313,238.224885 M335.043136,374.352451 L329.607123,376.116676 L324.028707,377.809155 M322.475224,377.810331 C311.670279,374.405378 300.34986,368.928049 292.676595,360.379793 M324.028707,377.810331 L323.253142,377.882076 L322.4764,377.810331 M335.891668,373.576192 L335.610393,373.99843 L335.044313,374.352451 M292.676595,360.379793 C290.415807,357.968686 285.519982,357.350031 282.43773,358.052192" id="path2661" stroke-width="2" stroke-linecap="round" stroke-linejoin="round"></path>
                <path d="M324.028707,247.046007 L324.028707,372.517658 M322.475224,247.046007 L322.475224,372.517658 M292.676595,229.686038 L292.676595,355.087119 M282.43773,227.357261 L282.43773,352.758343" id="path2663" stroke-width="2" stroke-linecap="round" stroke-linejoin="round"></path>
                <path d="M394.359118,344.925186 L394.217892,345.207461 L393.935441,345.489737 M335.043136,238.224885 L329.607123,239.989109 L324.028707,241.681589 M324.028707,241.682765 L323.253142,241.823903 L322.4764,241.682765 M322.475224,241.682765 C311.432549,238.253112 300.626427,232.908688 292.676595,224.322795 M292.676595,224.322795 C290.513488,221.757613 285.527043,221.308323 282.43773,221.995195" id="path2665" stroke-width="2" stroke-linecap="round" stroke-linejoin="round"></path>
                <path d="M327.926004,209.573878 L327.926004,213.808005" id="line2667" stroke-width="2" stroke-linecap="round" stroke-linejoin="round"></path>
                <polyline id="polyline2669" stroke-width="2" stroke-linecap="round" stroke-linejoin="round" points="393.935441 345.489737 389.909331 348.312497 385.673736 350.994118"></polyline>
                <path d="M335.043136,243.588127 L335.043136,369.059777 M335.891668,242.811868 L335.891668,368.283519" id="path2671" stroke-width="2" stroke-linecap="round" stroke-linejoin="round"></path>
                <path d="M369.715229,181.69913 C367.161397,183.823256 368.729003,186.858899 371.409938,187.9092 M371.409938,187.9092 C380.77438,192.644379 389.53979,198.862682 394.288505,208.516519 M394.289682,208.515343 L394.289682,209.009326 L393.935441,209.431564 M393.935441,209.43274 L389.909331,212.18493 L385.673736,214.866551 M385.673736,214.866551 L384.965253,215.148827 L384.190866,215.148827 M384.192043,351.276394 C371.326379,350.250791 357.289719,346.838781 345.846904,340.761616 M385.673736,350.994118 L384.965253,351.205825 L384.190866,351.27757 M345.846904,340.761616 C342.943539,339.314951 339.176343,339.131472 336.103506,340.126495" id="path2673" stroke-width="2" stroke-linecap="round" stroke-linejoin="round"></path>
                <path d="M384.192043,220.51207 L384.192043,345.98372 M345.846904,210.067861 L345.846904,335.468942 M385.673736,220.229794 L385.673736,345.701444 M393.935441,214.795983 L393.935441,340.197064 M334.903087,209.926723 L334.903087,221.218936" id="path2675" stroke-width="2" stroke-linecap="round" stroke-linejoin="round"></path>
                <path d="M427.688389,313.592557 L427.194099,313.945402 L426.487971,314.157109 M432.207612,306.817935 L430.019791,310.205246 L427.689566,313.592557 M432.347661,306.46509 L432.135823,306.819111 M384.192043,215.148827 C370.925063,214.052656 357.689858,210.901751 345.846904,204.704618 M345.846904,204.704618 C342.796429,203.002729 338.020645,203.053304 334.903087,204.56348" id="path2677" stroke-width="2" stroke-linecap="round" stroke-linejoin="round"></path>
                <path d="M369.5074,183.039952 L369.5074,185.580412" id="line2679" stroke-width="2" stroke-linecap="round" stroke-linejoin="round"></path>
                <path d="M393.01865,149.449105 C391.819409,152.498861 395.92437,154.553595 398.314615,155.024055 M398.314615,155.024055 C410.349401,157.618641 422.327696,162.039788 431.995774,169.843541 M431.995774,169.843541 L432.347661,170.266955 L432.207612,170.690369 M432.207612,170.690369 L430.019791,174.148249 L427.689566,177.464991 M427.688389,177.464991 L427.194099,177.817836 L426.487971,178.029543 M426.487971,178.029543 C412.48544,179.784358 398.001565,178.972815 384.261479,175.771335 M384.261479,175.771335 C380.870884,174.995077 376.439927,175.282057 373.810775,177.817836 M426.487971,314.157109 C415.693618,315.416766 405.122872,315.319145 394.359118,313.804264" id="path2681" stroke-width="2" stroke-linecap="round" stroke-linejoin="round"></path>
                <path d="M426.487971,183.392785 L426.487971,308.864436 M384.261479,180.922871 L384.261479,191.014236 M373.810775,180.711164 L373.810775,186.356683 M427.688389,182.828234 L427.688389,308.299884 M432.207612,176.053611 L432.207612,301.525262 M393.01865,150.013657 L393.01865,151.001623" id="path2683" stroke-width="2" stroke-linecap="round" stroke-linejoin="round"></path>
                <path d="M395.770198,114.517459 C396.628145,117.704825 401.210919,118.752774 404.03308,118.751599 M444.212976,270.898323 L440.328092,272.239134 L436.372594,273.368238 L432.347661,274.356203 M444.989717,270.192633 L444.704912,270.616047 L444.212976,270.898323 M445.270992,263.559149 L444.989717,270.192633" id="path2685" stroke-width="2" stroke-linecap="round" stroke-linejoin="round"></path>
                <path d="M403.11629,144.862121 L403.11629,152.342433 M394.570957,147.190898 L394.570957,151.283899" id="path2687" stroke-width="2" stroke-linecap="round" stroke-linejoin="round"></path>
                <path d="M404.031903,118.751598 C417.83201,118.70808 431.682723,121.019214 444.563687,126.020203 M444.564863,126.020203 L445.059153,126.373048 L445.272169,126.796462 M445.270992,126.796462 L445.198025,130.39548 L444.988541,134.065067 M444.989717,134.065067 L444.704912,134.488481 L444.212976,134.841326 M444.212976,134.841326 C430.60117,139.520049 417.482477,141.287802 403.11629,141.051396 M403.11629,141.051396 C400.348266,140.851451 395.526584,141.969969 394.570957,145.003259" id="path2689" stroke-width="2" stroke-linecap="round" stroke-linejoin="round"></path>
                <path d="M377.693305,81.2088993 C380.177701,83.728212 384.645142,84.1927911 387.933347,83.5376758 M387.933347,83.5376758 C402.087696,80.6043584 415.999607,80.3291394 430.301065,82.3380031 M430.301065,82.3380031 L431.007194,82.620279 L431.501484,82.9731239" id="path2693" stroke-width="2" stroke-linecap="round" stroke-linejoin="round"></path>
                <path d="M400.290598,108.095682 L400.290598,114.799735 M435.173353,96.0989546 L435.173353,117.622494" id="path2695" stroke-width="2" stroke-linecap="round" stroke-linejoin="round"></path>
                <path d="M340.974617,53.4752894 C344.143957,55.0760291 348.725555,55.1795303 351.921964,53.6164273 M351.921964,53.6164273 C363.926151,47.8532938 377.849831,44.845879 391.110926,44.1601837 M391.110926,44.1601837 L391.887668,44.2307527 L392.52436,44.5130286 M392.52436,44.5130286 L396.549294,47.2652189 L400.360034,50.1585472 M400.360034,50.1585472 L400.714276,50.5819611 L400.642486,51.005375 M431.501484,82.9731239 L433.549257,86.360435 L435.455804,89.8183152 M435.455804,89.8183152 L435.526417,90.312298 L435.173353,90.7357119 M435.173353,90.7357119 C424.912127,98.1560404 412.650203,102.338429 400.290598,104.637801 M400.290598,104.637801 C397.687338,105.110614 393.883658,106.784275 394.570957,110.071613" id="path2697" stroke-width="2" stroke-linecap="round" stroke-linejoin="round"></path>
                <path d="M376.06921,73.1640354 L376.06921,77.3276053 M400.642486,56.3686176 L400.642486,76.3396396" id="path2699" stroke-width="2" stroke-linecap="round" stroke-linejoin="round"></path>
                <path d="M289.993307,34.6333711 C293.154409,35.3249472 297.983152,35.0520804 300.373398,32.5868707 M300.373398,32.5868707 C308.752791,24.3314759 320.363899,19.0905528 331.584283,16.0031599 M331.584283,16.0031599 L332.361024,15.9325909 L333.137766,16.0031599 M333.137766,16.0031599 L338.50552,17.8379534 L343.870921,19.8138849 M343.869744,19.8138849 L344.364034,20.1667298 L344.647663,20.5901437 M344.647663,20.5901437 C345.03721,29.9934606 340.256719,38.041853 333.41904,44.1601837 M333.41904,44.1601837 C330.861678,46.5548245 332.268051,49.1729338 335.043136,50.4408231 M400.642486,51.005375 C395.537176,60.1417059 385.466605,66.8975098 376.06921,70.9763969 M376.06921,70.9763969 C373.281178,72.3689582 371.544102,74.4824992 373.950824,77.2570363" id="path2701" stroke-width="2" stroke-linecap="round" stroke-linejoin="round"></path>
                <path d="M332.651163,45.5715646 L332.651163,48.0414766" id="line2703" stroke-width="2" stroke-linecap="round" stroke-linejoin="round"></path>
                <path d="M230.89034,27.0119211 C234.019667,26.9519374 238.162288,26.2732991 239.50511,22.9894891" id="path2705" stroke-width="2" stroke-linecap="round" stroke-linejoin="round"></path>
                <path d="M276.894292,27.9998868 L276.894292,28.9878526" id="line2707" stroke-width="2" stroke-linecap="round" stroke-linejoin="round"></path>
                <path d="M183.226658,1.2542426 L189.44059,0.619121764 L195.654522,0.125138889 M195.654522,0.125138889 L196.431263,0.195707871 L197.066779,0.4779838 M197.067956,0.4779838 C205.064863,5.46956313 212.648684,13.2368558 214.791785,22.7072132 M214.790608,22.7072132 C215.391994,25.6499397 220.471413,27.0366202 223.052313,26.8707831 M170.869407,31.457767 C173.238469,31.190781 177.589398,29.0972345 176.589049,26.0239553 M176.589049,26.0239553 C173.862216,17.1546104 176.494898,8.94390935 181.955627,1.74822548 M181.955627,1.74822548 L182.449917,1.39538057 L183.226658,1.2542426 M239.50511,22.9894891 C242.388468,13.5203078 250.663119,6.16113916 258.923647,1.2542426 M258.923647,1.2542426 L259.630953,1.04253566 L260.406517,0.971966674 M260.406517,0.971966674 L266.620449,1.6776565 L272.763768,2.4539153 M272.763768,2.4539153 L273.471074,2.66562225 L273.893574,3.01846716 M273.893574,3.01846716 C278.9777,10.1282921 280.715953,19.2140486 277.353604,27.435335 M277.353604,27.435335 C276.274404,30.554484 280.186357,32.4868979 282.649569,32.9397156" id="path2709" stroke-width="2" stroke-linecap="round" stroke-linejoin="round"></path>
                <path d="M176.72093,26.5179382 L176.72093,27.294197" id="line2711" stroke-width="2" stroke-linecap="round" stroke-linejoin="round"></path>
                <path d="M123.34695,13.1804006 C134.095405,16.538308 145.546458,22.0862061 153.145578,30.6109392 M153.145578,30.6109392 C155.793561,33.1914116 159.979727,33.6054163 163.455056,32.9397156 M110.777861,16.7088497 L116.285664,14.8740562 L121.793467,13.1804006 M121.793467,13.1804006 L122.570209,13.1098316 L123.34695,13.1804006 M117.133018,47.5474949 C119.841022,46.3572314 121.675779,43.8861409 119.252581,41.3374244 M119.252581,41.3374244 C112.891539,34.8180266 108.677128,26.7308213 109.931683,17.4145395 M109.931683,17.4145395 L110.212958,16.9911256 L110.777861,16.7088497" id="path2713" stroke-width="2" stroke-linecap="round" stroke-linejoin="round"></path>
                <path d="M120.019027,42.6076661 L120.019027,44.9364425" id="line2715" stroke-width="2" stroke-linecap="round" stroke-linejoin="round"></path>
                <path d="M76.1069451,73.2346044 C78.6631307,70.9070041 77.1602536,68.2383204 74.4828493,66.953965 M74.4840261,66.953965 C65.6515339,62.8786062 55.7716175,55.3383105 51.5348457,46.3478222 M51.5348457,46.3478222 L51.5348457,45.9244083 L51.88791,45.5009944 M51.8867331,45.5009944 L55.9811023,42.7488041 L60.1472612,40.0671828 M60.1484381,40.0671828 L60.8557436,39.7849068 L61.6324851,39.7143379 M61.6324851,39.7143379 C74.6664427,40.8916637 88.3618074,44.0425688 99.9752696,50.2291162 M99.9752696,50.2291162 C103.298782,51.8486743 107.626173,51.916891 110.989699,50.3702542" id="path2717" stroke-width="2" stroke-linecap="round" stroke-linejoin="round"></path>
                <path d="M74.4840261,72.2780574 L74.4840261,76.8111905 M51.5348457,51.7110648 L51.5348457,75.7198807" id="path2719" stroke-width="2" stroke-linecap="round" stroke-linejoin="round"></path>
            </g>
        </g>
    </g>
</svg>