<?xml version="1.0" encoding="UTF-8"?>
<svg width="404px" height="438px" viewBox="0 0 404 438" version="1.1" xmlns="http://www.w3.org/2000/svg" xmlns:xlink="http://www.w3.org/1999/xlink">
    <!-- Generator: Sketch 52.4 (67378) - http://www.bohemiancoding.com/sketch -->
    <title>port copy</title>
    <desc>Created with Sketch.</desc>
    <g id="Port" stroke="none" stroke-width="1" fill="none" fill-rule="evenodd">
        <g id="port-copy" transform="translate(3.000000, 3.000000)">
            <path d="M0.0678710938,304.894043 C0.0678710938,185.563888 0.0678710938,125.898811 0.0678710938,125.898811 C2.19547526,124.664838 3.25927734,124.047852 3.25927734,124.047852 C5.5242513,125.510091 7.54410807,126.713216 9.31884766,127.657227 C13.0337379,129.128054 15.7279111,129.283002 17.4013672,128.12207 C17.4013672,125.898811 16.2333984,122.445313 20.7319336,120.587891 C20.8702799,116.093424 20.9394531,113.846191 20.9394531,113.846191 C22.8974609,112.564616 23.8764648,111.923828 23.8764648,111.923828 L29.6650391,115.334473 C158.486328,40.8523763 223.943685,3.09700521 226.037109,2.06835938 C229.177246,0.525390625 231.495117,0.666503906 233.974121,2.06835938 C236.453125,3.47021484 370.933594,80.5532227 372.884277,81.9599609 C374.834961,83.3666992 385.161621,91.1923828 385.161621,101.558105 C385.161621,111.923828 385.161621,308.723633 385.161621,311.023438 C385.161621,313.323242 384.696777,313.285645 385.983887,317.748047 C387.270996,322.210449 394.609863,345.980469 395.974609,350.049805 C397.725586,356.318359 397.534668,360.975586 395.401855,364.021484 C392.202637,368.590332 387.45752,375.112305 385.983887,376.667969 C384.510254,378.223633 371.991211,388.958496 370.425293,387.035645 C368.859375,385.112793 367.510254,383.434082 367.510254,382.712402 C367.510254,381.990723 373.55957,372.991211 374.791992,370.158691 C376.024414,367.326172 375.687988,365.205078 374.791992,362.476074 C373.895996,359.74707 360.34668,332.73291 359.530273,330.767578 C357.861328,327.315104 357.065755,324.988118 357.143555,323.786621 C357.221354,322.585124 357.221354,321.249186 357.143555,319.778809 C344.241536,327.104655 337.790527,330.767578 337.790527,330.767578 C337.850098,335.218424 337.879883,337.443848 337.879883,337.443848 C336.761719,341.633301 336.202637,343.728027 336.202637,343.728027 C334.268717,344.776204 333.301758,345.300293 333.301758,345.300293 C331.098958,344.037272 329.997559,343.405762 329.997559,343.405762 C329.031738,338.675944 328.548828,336.311035 328.548828,336.311035 C314.666341,344.090983 307.725098,347.980957 307.725098,347.980957 C307.707194,352.715983 307.698242,355.083496 307.698242,355.083496 C307.844401,357.34554 307.91748,358.476563 307.91748,358.476563 L308.626465,361.20166 C314.731283,381.493001 318.294434,392.959961 319.315918,395.602539 C320.519694,401.075521 320.25179,405.006836 318.512207,407.396484 C312.121567,415.910559 308.926246,420.167597 308.926246,420.167597 C304.895368,424.197235 302.879929,426.212054 302.879929,426.212054 C300.140284,428.250434 298.770461,429.269624 298.770461,429.269624 C295.367063,430.394686 293.665365,430.957217 293.665365,430.957217 C291.607453,428.281436 290.578497,426.943545 290.578497,426.943545 C294.185888,420.687655 295.989583,417.55971 295.989583,417.55971 C297.595176,415.023748 298.397972,413.755766 298.397972,413.755766 C298.66459,411.348772 298.797898,410.145275 298.797898,410.145275 C297.612692,407.482825 297.020089,406.1516 297.020089,406.1516 C287.056362,385.2141 282.074498,374.74535 282.074498,374.74535 C281.385634,372.548239 281.041202,371.449684 281.041202,371.449684 C280.477276,369.04734 280.195312,367.846168 280.195312,367.846168 C279.83693,359.640563 279.657738,355.53776 279.657738,355.53776 C278.448041,356.914249 277.843192,357.602493 277.843192,357.602493 C275.919829,358.008929 274.958147,358.212147 274.958147,358.212147 C269.397011,355.164342 266.616443,353.640439 266.616443,353.640439 C211.696429,385.37965 184.236421,401.249256 184.236421,401.249256 C184.254092,405.081721 184.262928,406.997954 184.262928,406.997954 C182.139912,408.321119 181.078404,408.982701 181.078404,408.982701 C177.164094,406.836434 175.206938,405.7633 175.206938,405.7633 C173.468037,406.847749 172.598586,407.389974 172.598586,407.389974 C170.594618,407.115606 169.592634,406.978423 169.592634,406.978423 C167.726314,406.279638 166.793155,405.930246 166.793155,405.930246 C165.804191,407.295573 165.30971,407.978237 165.30971,407.978237 C164.193638,410.312066 163.635603,411.478981 163.635603,411.478981 C163.319382,415.84654 163.161272,418.03032 163.161272,418.03032 C163.221726,419.362785 163.251953,420.029018 163.251953,420.029018 C161.246745,421.288318 160.244141,421.917969 160.244141,421.917969 C114.7633,395.748574 92.0228795,382.663876 92.0228795,382.663876 C91.9577753,380.69277 91.9252232,379.707217 91.9252232,379.707217 C90.7003348,380.406312 90.0878906,380.755859 90.0878906,380.755859 C44.4297185,354.427734 21.6006324,341.263672 21.6006324,341.263672 C21.2831721,336.105252 21.124442,333.526042 21.124442,333.526042 C22.1592882,329.399368 22.6767113,327.336031 22.6767113,327.336031 C24.3303571,324.997551 25.1571801,323.828311 25.1571801,323.828311 C21.9590154,320.100632 20.359933,318.236793 20.359933,318.236793 C18.2285466,312.697979 17.1628534,309.928571 17.1628534,309.928571 C14.5726376,310.135665 13.2775298,310.239211 13.2775298,310.239211 L8.9671689,309.728144 L0.0678710938,304.894043 Z" id="Path-2" stroke="#FFFFFF" stroke-width="6"></path>
            <path d="M0.0678710938,304.894043 C0.0678710938,185.563888 0.0678710938,125.898811 0.0678710938,125.898811 C2.19547526,124.664838 3.25927734,124.047852 3.25927734,124.047852 C5.5242513,125.510091 7.54410807,126.713216 9.31884766,127.657227 C13.0337379,129.128054 15.7279111,129.283002 17.4013672,128.12207 C17.4013672,125.898811 16.2333984,122.445313 20.7319336,120.587891 C20.8702799,116.093424 20.9394531,113.846191 20.9394531,113.846191 C22.8974609,112.564616 23.8764648,111.923828 23.8764648,111.923828 L29.6650391,115.334473 C158.486328,40.8523763 223.943685,3.09700521 226.037109,2.06835938 C229.177246,0.525390625 231.495117,0.666503906 233.974121,2.06835938 C236.453125,3.47021484 370.933594,80.5532227 372.884277,81.9599609 C374.834961,83.3666992 385.161621,91.1923828 385.161621,101.558105 C385.161621,111.923828 385.161621,308.723633 385.161621,311.023438 C385.161621,313.323242 384.696777,313.285645 385.983887,317.748047 C387.270996,322.210449 394.609863,345.980469 395.974609,350.049805 C397.725586,356.318359 397.534668,360.975586 395.401855,364.021484 C392.202637,368.590332 387.45752,375.112305 385.983887,376.667969 C384.510254,378.223633 371.991211,388.958496 370.425293,387.035645 C368.859375,385.112793 367.510254,383.434082 367.510254,382.712402 C367.510254,381.990723 373.55957,372.991211 374.791992,370.158691 C376.024414,367.326172 375.687988,365.205078 374.791992,362.476074 C373.895996,359.74707 360.34668,332.73291 359.530273,330.767578 C357.861328,327.315104 357.065755,324.988118 357.143555,323.786621 C357.221354,322.585124 357.221354,321.249186 357.143555,319.778809 C344.241536,327.104655 337.790527,330.767578 337.790527,330.767578 C337.850098,335.218424 337.879883,337.443848 337.879883,337.443848 C336.761719,341.633301 336.202637,343.728027 336.202637,343.728027 C334.268717,344.776204 333.301758,345.300293 333.301758,345.300293 C331.098958,344.037272 329.997559,343.405762 329.997559,343.405762 C329.031738,338.675944 328.548828,336.311035 328.548828,336.311035 C314.666341,344.090983 307.725098,347.980957 307.725098,347.980957 C307.707194,352.715983 307.698242,355.083496 307.698242,355.083496 C307.844401,357.34554 307.91748,358.476563 307.91748,358.476563 L308.626465,361.20166 C314.731283,381.493001 318.294434,392.959961 319.315918,395.602539 C320.519694,401.075521 320.25179,405.006836 318.512207,407.396484 C312.121567,415.910559 308.926246,420.167597 308.926246,420.167597 C304.895368,424.197235 302.879929,426.212054 302.879929,426.212054 C300.140284,428.250434 298.770461,429.269624 298.770461,429.269624 C295.367063,430.394686 293.665365,430.957217 293.665365,430.957217 C291.607453,428.281436 290.578497,426.943545 290.578497,426.943545 C294.185888,420.687655 295.989583,417.55971 295.989583,417.55971 C297.595176,415.023748 298.397972,413.755766 298.397972,413.755766 C298.66459,411.348772 298.797898,410.145275 298.797898,410.145275 C297.612692,407.482825 297.020089,406.1516 297.020089,406.1516 C287.056362,385.2141 282.074498,374.74535 282.074498,374.74535 C281.385634,372.548239 281.041202,371.449684 281.041202,371.449684 C280.477276,369.04734 280.195312,367.846168 280.195312,367.846168 C279.83693,359.640563 279.657738,355.53776 279.657738,355.53776 C278.448041,356.914249 277.843192,357.602493 277.843192,357.602493 C275.919829,358.008929 274.958147,358.212147 274.958147,358.212147 C269.397011,355.164342 266.616443,353.640439 266.616443,353.640439 C211.696429,385.37965 184.236421,401.249256 184.236421,401.249256 C184.254092,405.081721 184.262928,406.997954 184.262928,406.997954 C182.139912,408.321119 181.078404,408.982701 181.078404,408.982701 C177.164094,406.836434 175.206938,405.7633 175.206938,405.7633 C173.468037,406.847749 172.598586,407.389974 172.598586,407.389974 C170.594618,407.115606 169.592634,406.978423 169.592634,406.978423 C167.726314,406.279638 166.793155,405.930246 166.793155,405.930246 C165.804191,407.295573 165.30971,407.978237 165.30971,407.978237 C164.193638,410.312066 163.635603,411.478981 163.635603,411.478981 C163.319382,415.84654 163.161272,418.03032 163.161272,418.03032 C163.221726,419.362785 163.251953,420.029018 163.251953,420.029018 C161.246745,421.288318 160.244141,421.917969 160.244141,421.917969 C114.7633,395.748574 92.0228795,382.663876 92.0228795,382.663876 C91.9577753,380.69277 91.9252232,379.707217 91.9252232,379.707217 C90.7003348,380.406312 90.0878906,380.755859 90.0878906,380.755859 C44.4297185,354.427734 21.6006324,341.263672 21.6006324,341.263672 C21.2831721,336.105252 21.124442,333.526042 21.124442,333.526042 C22.1592882,329.399368 22.6767113,327.336031 22.6767113,327.336031 C24.3303571,324.997551 25.1571801,323.828311 25.1571801,323.828311 C21.9590154,320.100632 20.359933,318.236793 20.359933,318.236793 C18.2285466,312.697979 17.1628534,309.928571 17.1628534,309.928571 C14.5726376,310.135665 13.2775298,310.239211 13.2775298,310.239211 L8.9671689,309.728144 L0.0678710938,304.894043 Z" id="Path-2" stroke="#FFFFFF"></path>
            <text id="Frontend-Armory" transform="translate(253.785618, 164.418099) rotate(-30.000000) translate(-253.785618, -164.418099) " font-family="Lato-Regular, Lato" font-size="12" font-weight="normal" letter-spacing="0.18" fill="#FFFFFF">
                <tspan x="170.285618" y="168.918099">FRONTEND</tspan>
                <tspan x="236.777618" y="168.918099" font-family="Lato-Bold, Lato" font-weight="bold"> </tspan>
                <tspan x="239.273618" y="168.918099" font-family="Lato-Black, Lato" font-weight="700">ARMORY</tspan>
            </text>
            <g id="Type_A_Receptacle_Dual_BW" transform="translate(0.000000, 1.000000)" stroke="#FFFFFF" stroke-linecap="round" stroke-linejoin="round" stroke-width="1.5">
                <path d="M233.115174,45.881012 C231.868005,46.8454409 229.585021,46.9664329 228.18938,46.1966433 M249.569424,34.7287074 L233.01037,45.881012 M228.187633,46.1983968 L218.126436,40.3066132 M17.0090445,127 C16.8850263,124.048848 18.0238979,120.29985 21.1994633,119.42485 M250.301306,30.6272545 L249.253264,31.258517 M234.477628,22.6312625 L235.420865,22" id="path3029"></path>
                <path d="M245,28.6147689 L238.768427,25 M228.10559,44.6213099 L228,43.2786815 M233.066563,44.416473 L232.960973,42.9705655" id="path3031"></path>
                <polyline id="polyline3033" points="219.2 40.562 218.36 39.84 218 39"></polyline>
                <path d="M218.122,39.68 L218,38" id="line3035"></path>
                <path d="M231.214043,19.5166271 L208.87756,32.2256532 M208.981936,32.2239311 C207.705068,33.0109264 207.640703,34.2198337 208.981936,35.0137173 M208.981936,35.0154394 L228.709017,46.2779097 M228.709017,46.2779097 C230.013718,47.0907363 232.334347,47.1820071 233.612954,46.2779097 M236.11972,22.4097387 L236.850352,21.7897862 L237.16348,21.1698337 L237.057365,20.4465558 L236.537224,19.8266033 L235.702215,19.3099762 L234.554078,19 L233.301565,19 L232.153428,19.1033254 L231.214043,19.5166271 M233.510317,42.4531473 C232.198658,43.3538005 229.928478,43.4932898 228.604641,42.6597981 M228.604641,42.6615202 L218.688912,36.9786223 M218.791549,37.0819477 L218.060916,36.5653207 L217.747788,35.9453682 L217.747788,35.2220903 L218.060916,34.6021378 L218.791549,33.9821853 M250,31.3973278 L233.404202,42.4531473 M218.791549,33.9804632 L235.180335,22.8213183" id="path3037"></path>
                <path d="M251,33.68 L251,32" id="line3039"></path>
                <path d="M233,46 L254.96861,33.335279 M254.96861,33.4382443 L255.690583,32.820453 L256,32.2026617 L255.896861,31.4819052 L255.381166,30.864114 C253.672496,29.659421 251.979297,29.8687836 250.119357,30.5552183" id="path3041"></path>
                <path d="M231,21.678 L231,20" id="line3043"></path>
                <polyline id="polyline3045" points="255 34.362 254.000416 34 252.900875 34 251.901291 34.24 251 34.602"></polyline>
                <path d="M209,34.322002 L209,33" id="line3047"></path>
                <path d="M79.6803378,131.731671 L65.3027744,123.367696 M77.5814234,135.493717 L63.0989144,127.129742 M91.2226176,138.318301 L86.3951146,135.495459 M86.9198432,140.825751 L84.1912545,139.257505 M65.4077201,123.470503 L63.2038601,122.111357 M63.2038601,127.236034 L61,125.981438 M68.9758745,125.563239 L70.0253317,125.876888 L71.1797346,125.772339 L72.544029,125.145041 L73.8033776,124.308643 L74.9577805,123.054047 L76.0072376,121.485802 M235,23.313649 L233.845597,23 L232.692943,23 L231.641737,23.2090994 L230.697226,23.5227484 M230.697226,23.5227484 L208.868516,36.0687104" id="path3049"></path>
                <path d="M64,125.798006 L64.962006,124" id="line3051"></path>
                <path d="M85,139 L78,135" id="line3053"></path>
                <path d="M85,138.798004 L85.961998,137" id="line3055"></path>
                <path d="M87,136 L80,132" id="line3057"></path>
                <path d="M78,134.919998 L78.958,133" id="line3059"></path>
                <path d="M84.4616436,111.062716 L82.6590922,112.550519 L80.9642349,114.357137 L79.3770716,116.376298 L78,118.501731 M84.4616436,111.062716 L85.7327866,110 M100.455094,131.573142 L101.832166,129.341438 L103.527023,127.322277 L105.221881,125.621931 L107.024432,124.134128 M108.507432,126.89719 L107.234524,127.428548 M103.211003,132 L104.482146,130.299654 L105.859217,128.705579 L107.342218,127.43032" id="path3061"></path>
                <path d="M107.117996,126.559998 L107,125" id="line3063"></path>
                <path d="M76,121 L78,118" id="line3065"></path>
                <path d="M85,122 L94,127" id="line3067"></path>
                <path d="M115.035028,81.6174798 L93.2681137,94.1646086 M93.3727623,94.1646086 L92.3245319,94.7919651 M92.4309246,94.7919651 L80.2916838,107.129975 M80.3963325,107.129975 L79.4544948,107.757332 M85.4194666,109.951336 L97.3494101,97.6133264 M97.347666,97.7178858 L98.2895036,96.8814106 M98.2895036,96.98597 L119.95177,84.3342817 M119.95177,84.4405838 L120.68431,83.9177868 L121,83.1858709 L120.893607,82.5585145 L120.370364,81.931158 C119.111092,80.8367696 116.442552,80.6747025 115.033284,81.6174798 M50.0464863,124.798772 L49,125.530688 M99.9638817,131.072337 L98.184855,134" id="path3069"></path>
                <path d="M50,125.784926 L50,125.264181 M79.4249239,110.476734 L79.4249239,108.914497 M80.2614126,109.74769 L80.2614126,108.289602 M92.2609383,97.4580884 L92.2609383,96" id="path3071"></path>
                <path d="M80,108 L50,125" id="line3073"></path>
                <path d="M94,96.7268626 L94,95.2928911 M115.28614,84.4339715 L115.28614,83" id="path3075"></path>
                <path d="M135.315955,118.504624 L156.954652,106.019075 M156.954652,106.123121 L157.686396,105.498844 L158,104.874566 L157.895465,104.146243 L157.372791,103.521965 C155.799543,102.231792 153.802929,102.613295 152.039776,103.209827 M152.039776,103.208092 L130.298286,115.693642 M130.401078,115.695376 L129.043868,116.215607 M82.2105488,143.371676 L111.691096,126.412139 M111.691096,126.516185 L112.839237,125.891908 M112.839237,125.99422 L134.061537,118.919075 M134.061537,119.023121 L135.315955,118.398844 M80.9578738,143.99422 L82.2122911,143.265896 M79.5971795,111.637572 L52,127.348555 M80.4351999,110.909249 L79.494387,111.637572 M92.4566986,98.6317919 L80.3306652,110.909249 M93.3975115,98.0057803 L92.3504216,98.6300578 M115.036209,85.5219653 L93.2929768,98.0075145 M119.215858,85.2080925 L118.17051,85 L117.020628,85 L115.97528,85.1040462 L115.034467,85.5202312" id="path3077"></path>
                <path d="M130,118.682006 L130,117" id="line3079"></path>
                <path d="M91.6032828,331 L92.5495629,329.428771 L93.8112697,328.171788 L95.0729765,327.22905 L96.3364357,326.705307 L97.5981425,326.598813 L98.5444226,326.913059 M89.3935435,329.741271 C91.1003524,326.396299 96.460854,320.832402 100.748905,323.143855 M78.4605035,310.258031 C74.3546993,308.053073 68.69279,313.515712 67,316.857193 M130.924726,119.093575 L129.559629,119.617318 M152.689168,106.626746 L130.821336,119.09183 M157,106.314246 L155.845188,106 L154.793765,106 L153.637201,106.209497 L152.690921,106.628492 M129.664772,119.615573 L108.215756,126.52898 M129.664772,116.05412 L108.215756,122.967528 M108.320898,126.52898 L108.320898,122.862779" id="path3081"></path>
                <path d="M83,326 L74,321" id="line3083"></path>
                <path d="M77.3516226,340.225643 L79.4353443,341.478096 M79.4353443,341.478096 C81.9826942,342.859274 84.8981682,341.318061 86.2057036,338.97319 M77.3516226,340.225643 C79.7739491,341.652048 82.8057643,339.968195 84.0195322,337.720737 M61.9320817,324.883094 C60.5186238,327.045315 60.5707169,330.620025 63.0781287,331.980328 M66.6204556,316.636039 L61.8278956,324.881354 M86.2057036,338.971451 L91,330.621764 M79.7461662,311.106111 L81.1005853,311.523595 L82.6633766,311.523595 L84.330354,311 M63.0781287,331.980328 L77.3516226,340.225643" id="path3085"></path>
                <path d="M85,339 L85.961998,339.48002" id="line3087"></path>
                <path d="M107,327.965517 L105.234258,328.586207 L103.574011,328.793103 L101.913765,328.586207 L100.564814,328.068966 M86.1431491,311 L85.2092603,311.517241 M85,338 L89.7732097,329.724138" id="path3089"></path>
                <path d="M107,325 L107,325.47998" id="line3091"></path>
                <path d="M94.2339197,301.671816 L85.1035279,310.971294 M80.1710175,311.702713 L91.5035477,300 M49,329.885456 L49.7346292,329.258525 M49.7346292,329.363013 L64.3240157,320.899444 M80.0660704,311.808943 L80.1710175,311.599966 M98.0120128,327.167013 L99.7961123,328.21364 M100.2159,323.407168 L102,324.452053" id="path3093"></path>
                <path d="M101,320 L92,315" id="line3095"></path>
                <path d="M26.2091371,135 L29.0307445,136.88891 M29.0307445,136.88891 L28.1959391,137.203728 M27.2548223,136.575841 L26,135.841265 M28.2987648,171.520677 L29.0307445,170.89104 M74.3106599,344.251009 L50.0507614,330.189123 M82.2561252,344.251009 C80.225753,345.510283 76.3375465,345.510283 74.3089171,344.251009 M129,321.374209 L112.791878,326.621182 M111.746193,327.145879 L82.1532995,344.251009 M112.894704,326.621182 L111.639882,327.145879 M107.981726,323.787817 L124.083536,318.540844 M107.981726,323.787817 L107.981726,327.355758" id="path3097"></path>
                <path d="M29,163 L29,145" id="line3099"></path>
                <path d="M28.8886978,137.3226 L38.4833014,133.669835 M35.388268,132 L26,135.444035 M45.6035976,161.015129 L26.0017195,175 M52,157.153635 L28.7872495,171.24287" id="path3101"></path>
                <path d="M28.202002,176.838 L27,176" id="line3103"></path>
                <path d="M26.2099125,253.44243 L29.0419825,255.432004 M29.0419825,255.432004 L28.2040816,255.641432 M27.2594752,255.11786 L26,254.384859 M28.3072886,289.883046 L29.0419825,289.25476 M59.2693878,171.660471 L62,169.985041 M28.3072886,137.733001 L27.154519,137" id="path3105"></path>
                <path d="M29,281 L29,263" id="line3107"></path>
                <path d="M41.5739884,244 L28.6529387,249.734246 M28.758849,249.734246 L27.911567,250.358062 L27.0660503,251.192134 L26.4305888,252.234725 L26.1128581,253.279052 C25.7139295,254.764743 26.3617472,256.493705 28.2292978,255.67701 M46.1281288,279.135288 L26.0051827,293 M28.2275326,255.67701 L27.0642851,255.051456 M28.9689043,255.468492 L45.7027227,249.212951 M45.7044879,246.397957 L26.0051827,253.48757 M51,276.216036 L28.8647592,289.248413" id="path3109"></path>
                <path d="M28.202002,294.84 L27,294" id="line3111"></path>
                <path d="M119.66986,325.089084 L119.249816,324.248239 M28.7302874,295.552644 L53.5111459,278 M28.2034819,290.194008 L27.3651437,290.929747 L26.6300663,291.875698 L26.2100221,293.03186 L26,294.082917 C26.0140015,296.008102 27.0518607,296.661509 28.7320376,295.554396" id="path3113"></path>
                <path d="M28,282 L28,263" id="line3115"></path>
                <path d="M28.2054907,172.20205 L27.3683405,172.939971 L26.6343048,173.888726 L26.2148559,175.048316 L26.0051314,176.102489 L26.1117413,177.051245 L26.426328,177.683748 L27.0555015,178 L27.8926517,178 L28.7315496,177.578331 M32.2968657,130.140556 L28.6249396,131.721816 M85.252296,106 L85.3571583,106.105417 M28.7315496,131.721816 L27.8926517,132.248902 L27.0555015,133.197657 L26.426328,134.146413 L26.1117413,135.306003 C25.7167602,136.809956 26.3581676,138.558126 28.2072384,137.7306 M59.139851,166.825769 L63.8586517,163.979502 M59.139851,173.4653 L59.139851,166.718594" id="path3117"></path>
                <path d="M28,164 L28,145" id="line3119"></path>
                <path d="M106.798892,328.878689 L108.053797,328.247951 M100.53481,324.253279 L78.2911392,311.218033 M108.053797,328.353074 L128,321.833699 M29,177.606762 L55.2120253,159" id="path3121"></path>
                <path d="M107,326 L107,327.08002" id="line3123"></path>
                <path d="M106.351648,324.540557 L104.769231,325.079318 L103.285714,325.079318 L102,324.648309 M106.054945,328.417839 L106.251099,328.20413 M106.351648,324.540557 L107.43956,324" id="path3125"></path>
                <path d="M92,114 L101,119" id="line3127"></path>
                <path d="M184.818083,168.734391 L183.021521,170.202002 L181.332296,171.984101 L179.750406,173.975858 L178.37791,176.177275 M185.24039,172.08893 L183.760558,173.346882 L182.282485,174.814493 L181.015566,176.596592 M185.24039,172.08893 L186.296156,171.459954 M163.595425,155 L162.328506,155.943464 M184.818083,168.734391 L186.296156,167.895756 M155.888332,163.283265 L157.260828,161.081849 L158.844478,159.090092 L160.63928,157.412822 L162.435842,155.945211 M122.422306,324.196308 L122,323.252844" id="path3129"></path>
                <path d="M179,163 L170,158" id="line3131"></path>
                <path d="M308.606752,359.91595 L319.102402,393.632457 M283.627105,368.397432 L280.47841,366.512658 M307.977013,354.472794 L308.083719,357.195245 L308.608501,359.917695 M285.094747,373.423495 L284.150138,371.015173 L283.625356,368.397432 M374.204565,360.650663 L359.195786,329.237769 M285.094747,373.423495 L282.365878,373.632914 M282.470834,373.632914 L281.211356,370.179241 L280.581617,366.619113 M384.803422,310.178868 L384.910128,312.903064 L385.434911,315.625514 M362.026113,329.131314 L360.980046,326.722992 L360.556722,324.20996 M368.428459,379.810783 L374.939261,369.130399 M291.603799,424 L298.111102,413.42258 M362.026113,329.131314 L359.195786,329.340733 M359.297243,329.342478 L358.039515,325.99177 L357.409776,322.431642 M377.664631,372.587563 C379.830234,369.287464 378.359093,363.613946 376.826728,360.334789 M374.939261,369.236854 L375.88212,370.386915 M374.939261,369.236854 C376.543346,366.917535 375.248882,362.94904 374.204565,360.650663 M395.930561,349.444986 C397.191788,353.624646 397.797037,358.771125 395.092658,362.533692 M280.47841,335.206219 L280.583366,336.148605 M300.838222,416.879744 C302.921608,413.317871 301.56767,408.124272 299.99857,404.62697 M298.111102,413.529035 L299.055711,414.680841 M298.111102,413.529035 C299.652213,411.616339 298.408479,406.722908 297.27145,404.838134 M319.102402,393.632457 C320.333892,397.806882 320.975876,403.070287 318.26275,406.827618 M184.653125,345.258345 L186.439135,346.410151 M186.437385,380.543751 L187.381994,379.810783 M236.7098,251.332045 L239.753538,253.113855 M187.381994,345.886603 L186.332429,346.410151 M245.213026,314.157834 L248.153557,313.006028 M248.151808,330.494284 L245.108069,332.274348 M184.441462,227.250572 L186.437385,228.402378 M186.437385,262.642433 L187.381994,261.804755 M187.381994,227.981794 L186.332429,228.400633 M245.213026,196.256516 L248.153557,195 M248.151808,212.589476 L245.108069,214.371285 M162.402347,355.72931 L160.723043,356.252858 L159.148695,356.252858 L157.784261,355.834019 M156,354.786923 L172.478171,364.315501 M162.402347,355.72931 L163.240249,355.101052" id="path3133"></path>
                <path d="M302,364 L292,370" id="line3135"></path>
                <path d="M296.830836,405 L282,373.614287 M376,360.385713 L361.167423,329 M299.546342,404.79005 L284.612803,373.404337" id="path3137"></path>
                <path d="M313,397 L305,402" id="line3139"></path>
                <path d="M357,323 L357,319" id="line3141"></path>
                <path d="M282.44002,337.84 L281,337" id="line3143"></path>
                <path d="M283.555411,368 L283.555411,337.670061 M272.463153,349.305193 L273.612492,348.474236 L274.449644,347.333401 L275.182151,345.877495 L275.598983,344.21558 L275.705371,342.242057 M244,333.205397 L250.9065,337.150713 M360.255934,324.167006 L357.013716,322.299084 M360.255934,324.167006 L360.255934,317 M360.255934,317.105601 L307.726418,347.123931 M307.832806,347.123931 L307.832806,354.187067" id="path3145"></path>
                <path d="M171,400 L169,401.31998" id="line3147"></path>
                <path d="M374,82 C380.039167,85.6033883 385.065696,93.9585165 384.999351,101" id="path3149"></path>
                <path d="M174,197 L367,86" id="line3151"></path>
                <path d="M373,81 L234,1" id="line3153"></path>
                <path d="M191,392 L268,347" id="line3155"></path>
                <path d="M385,101 L385,311" id="line3157"></path>
                <path d="M390,353.153226 L382.026612,357.66129 M300.823951,358.919355 L290.122825,365 M377.618518,105 L185,216.129032" id="path3159"></path>
                <path d="M280,367 L280,336" id="line3161"></path>
                <path d="M378,315 L367,321" id="line3163"></path>
                <path d="M378,373 L376,371" id="line3165"></path>
                <path d="M378,320 L368,326" id="line3167"></path>
                <path d="M376.89,361.23441 L375,361.446281 M385.5,316 L396,350.21713" id="path3169"></path>
                <path d="M246,28.5642752 L239.811357,25 M20,299.868513 L20,136.645678 M89.3516199,357 L34.6873157,325.445682 M82.636619,125.323862 L91.7648233,130.565443" id="path3171"></path>
                <path d="M99,362 C95.2861628,364.00885 91.8862973,369.826549 92.0029153,374" id="path3173"></path>
                <path d="M154,410 L99,378" id="line3175"></path>
                <path d="M174.67895,405.256012 L173.529179,404.416332 L172.588458,403.471693 L172.065835,402.422094 L171.856786,401.372495 M177.814687,220 C175.73639,221.250772 175.741616,223.056083 177.814687,224.303357 M160.043765,421 L163.074978,419.110721 M92,381.53332 L160.045507,421 M160.043765,421 L160.043765,413.757765 M163.07672,419.213932 L163.07672,411.971697 M92,374.397795 L92,381.53332 M166.839605,405.569142 L166.839605,401.895545 M160.043765,413.862725 C159.885236,409.806024 163.275317,403.935266 166.837863,402.002254 M163.07672,412.078407 C163.25267,409.473651 164.651557,407.000096 166.839605,405.569142" id="path3177"></path>
                <path d="M175,234 L175,397" id="line3179"></path>
                <path d="M163.247191,191.219323 L24,111 M181.099395,407.998255 L184.249784,406.00848 M163.247191,198.340621 C163.437965,200.829584 164.85564,201.608039 167.027658,200.43512 M167.027658,401.086407 L168.497839,401.819482 L169.863008,402.135402 L171.228176,402.135402 L172.381569,401.819482 M167.027658,404.647056 C169.491962,406.223166 173.237424,406.938787 175.638721,404.856506 M181.099395,229.12976 L184.249784,227.244711 M181.099395,229.12976 L174.798617,225.462641 M184.249784,227.34769 L177.949006,223.682317 M181.099395,407.998255 L181.099395,229.02329 M174.90363,404.334626 L181.099395,408 M184.249784,406.113205 L184.249784,227.244711 M174.90363,217.714739 C171.126664,219.929672 171.131914,223.355924 174.90363,225.569111 M178.054019,219.493318 L174.800367,217.608269" id="path3181"></path>
                <path d="M28,124 L153,196" id="line3183"></path>
                <path d="M304.905633,90.2560404 L314.762303,96.0266279 M303.858985,88.893832 L304.173503,89.6282705 L304.907381,90.2577891 M335.938155,81.1297689 L336.883458,80.5002502 M336.252673,84.5921214 L336.883458,84.0675225 M322.099328,72 L320.947839,72.6295186 M160.017308,192.974246 L163.057656,191.085691 M160.017308,200.108791 L160.017308,192.869327 M177.841787,219.5172 C177.586677,211.973469 173.162446,204.489191 166.833629,200.421802 M174.696599,217.735313 C174.853858,212.662442 171.114579,206.612068 166.833629,203.990823 M149.115737,332.832303 L98.4782108,362 M163.059404,198.325155 L163.059404,191.085691 M166.833629,200.421802 L166.833629,203.989074 M160.017296,200.108791 C160.010319,204.352796 162.989511,206.28332 166.831882,203.990823 M160.017308,192.974246 L21,112.605701" id="path3185"></path>
                <path d="M305.11998,89.682 L305,88" id="line3187"></path>
                <path d="M320,96 L337,85" id="line3189"></path>
                <path d="M325.952157,76 L332,79.4437777 M315.106011,95.617358 L315,94.2607183 M320.109385,95.4086442 L320.005111,94.0520045" id="path3191"></path>
                <path d="M295.100233,82.8927711 L317.259951,70 M295.100233,85.8277108 C293.633256,84.784759 293.633256,83.9357229 295.100233,82.8927711 M314.857384,97.253012 L294.99744,85.7228916 M319.770538,97.253012 C318.151985,97.991988 316.474195,97.991988 314.859126,97.253012 M342.038276,84.358494 L319.666003,97.2512651 M304.823748,87.8175301 L314.752849,93.4777711 M304.823748,84.6746988 C303.585006,85.5918675 303.429945,86.9772289 304.823748,87.8192771 M337.020586,81.5301205 L338.064196,81.1108434 L339.214083,80.9012048 L340.468505,81.0060241 L341.513857,81.2156627 C343.148091,82.035 343.594108,83.1163855 342.040018,84.360241 M319.666003,93.2698795 L336.078027,81.9493976 M314.752849,93.4795181 C316.230279,94.4159036 318.212963,94.1066867 319.666003,93.2698795 M321.23403,73.5638554 L304.71747,84.6746988 M314.963661,96.9385542 C316.510782,97.6513253 318.408096,97.6216265 319.873331,96.7289157" id="path3193"></path>
                <path d="M337.244284,83.6 L337.244284,82.1658537 M295,84.5219512 L295,83.2926829 M317.330952,72.4341463 L317.330952,71" id="path3195"></path>
                <path d="M162.197201,184.247454 L164.716354,185.719593 M141.099294,167.000644 L143.196839,168.262478 M139,170.786144 L140.994329,172.047978 M157.578754,176.5713 L164.296495,180.461953 M143.196839,168.26423 L157.578754,176.5713 M140.994329,172.04973 L155.374495,180.3568 M164.296495,180.461953 L169.124872,183.195926 M153.800024,166.264575 L152.855342,167.736714 L151.595765,168.998547 L150.334439,169.944922 L149.074863,170.470686 L147.815286,170.680992 L146.870604,170.365533 M337.698196,84.6660126 L338.641129,84.2454014 L339.795741,84.0350959 L340.948603,84.0350959 L342,84.3505542 M296.237136,85.7175404 L317.856367,73.0992061 M317.856367,73.2061114 L318.802799,72.7855003 L319.955661,72.5751947 L321.112023,72.5751947 L322.16167,72.8906531 M317.856367,69.6309167 L318.907764,69.2103056 L320.060626,69 L321.321952,69.1051528 L322.375098,69.3154584 C324.012548,70.1374026 324.460397,71.2222289 322.898172,72.4700419" id="path3197"></path>
                <path d="M142,170.798004 L142.960006,169" id="line3199"></path>
                <path d="M155,180 L162,184" id="line3201"></path>
                <path d="M156,178.677019 L156.793225,177 M162.347449,182.925466 L163.139021,181.136646" id="path3203"></path>
                <path d="M155,163 L153,166" id="line3205"></path>
                <path d="M184.473988,170.825163 L184.265896,169.550654 M171.156069,172 L162,167" id="path3207"></path>
                <path d="M188.778438,171.049834 L159.252004,188.2421 M190.030442,170.520706 L188.674104,171.048077 M211.21018,163.561179 L189.924369,170.522464 M212.356112,163.033809 L211.104108,163.561179 M234.059258,150.376927 L212.253517,163.033809 M229.155575,147.52737 L230.094578,147.105474 L231.242248,147 L232.494253,147 L233.539328,147.316422 L234.476593,147.843792 L234.893927,148.476636 L235,149.214954 L234.686999,149.847799 L234.060997,150.375169 M185.022425,167.672908 L206.306497,160.711623 M159.356338,188.2421 L158,188.76947 M207.454168,160.18601 L229.153836,147.423654 M206.306497,160.711623 L207.454168,160.078778 M175.421987,178.854912 L177.197398,175.796165" id="path3209"></path>
                <path d="M207,163.717647 L207,162.235294 M208.166902,163.186471 L208.166902,161.704118 M230.231966,150.482353 L230.231966,149" id="path3211"></path>
                <path d="M172.834892,372.437552 L171.675848,373.380553 L170.516805,374.531364 L169.463129,376 M172.834892,368.875105 L171.359746,369.922883 L169.8846,371.284996 L168.514821,372.961442 L167.250411,374.742666 M144.91073,361.959765 C146.621197,358.613859 151.993187,353.046661 156.290427,355.358759 M129.950292,172.310073 L157.661962,156.279058 M158.61027,155.755169 L170.622173,143.286602 M170.622173,143.393127 L171.570481,142.659681 M171.570481,142.762713 L193.381567,130.084591 M193.381567,130.191115 L194.329875,129.772003 L195.487162,129.562448 L196.646206,129.667225 L197.701637,129.876781 M157.661962,156.385583 L158.61027,155.652137 M175.574448,142.657935 L163.457178,155.021724 M176.521,142.029268 L175.467325,142.657935 M198.43921,129.45767 L176.417389,142.031014 M193.381567,126.628667 L194.435243,126.209556 L195.594286,126 L196.860453,126.104778 L197.914129,126.419111 C199.614059,127.011106 199.951235,128.324322 198.440967,129.45767 M171.570481,139.097234 L193.381567,126.523889 M170.622173,139.830679 L171.570481,138.992456 M158.61027,152.194468 L170.622173,139.725901 M157.661962,152.823135 L158.61027,152.08969 M127.948308,169.900182 L157.661962,152.716611 M127,170.633627 L127.948308,169.795404 M186.216573,171.576628 L186.216573,167.909402 M186.216573,171.576628 L207.711556,164.661288 M207.711556,164.661288 L208.8706,164.032621 M208.8706,164.139145 L230.785297,151.461023 M230.787053,151.564054 L231.628238,151.249721 L232.787281,151.040165 L233.946324,151.040165 L235,151.249721" id="path3213"></path>
                <path d="M151,366 L160,371" id="line3215"></path>
                <path d="M155.231465,385.252874 L157.399103,386.490805 M164,384.016662 C162.721076,386.287922 159.891629,387.855968 157.399103,386.490805 M155.231465,385.252874 L141,377" id="path3217"></path>
                <path d="M163,383 L163.839998,383.60002" id="line3219"></path>
                <path d="M207.235971,365.090157 L204.613186,365.829217 M208.389997,364.564017 L207.129311,365.091917 M230,352 L208.283337,364.564017 M139.881093,369.946836 L144.707018,361.500438 M166.949987,374.486775 L162.124062,382.827593 M162.228973,382.827593 C160.753219,385.234817 158.184638,386.90474 155.409731,385.467092 M141.036867,377.126274 C138.599425,375.755494 138.527736,372.100668 139.882841,369.946836 M169.153127,375.755494 L164.22229,384.201892" id="path3221"></path>
                <path d="M351.253642,212.807842 L351.253642,206 M166,356.922877 L169.772133,359.124079 M207.076083,364.254399 L207.076083,364.568608" id="path3223"></path>
                <path d="M187.29447,262.177087 L245.182034,214.485076 M248.123689,195.305903 L247.806761,195.096275 M315.464822,233.353301 L315.464822,223.60562 M259.888557,265.3215 L315.464822,233.248487 M259.888557,267.208148 L259.783498,268.56898 L259.365013,270.03812 L258.629599,271.505513 M320.192481,219.517883 L319.2487,220.775649 L318.198109,221.9286 L317.042459,222.765363 M258.629599,254.94319 L259.888557,255.676887 M315.464822,233.353301 L320.19073,236.078459 M361.3774,206.940231 L352.867612,211.761665 M361.3774,197.192551 L361.3774,206.940231 M366,209.560575 L361.27234,206.835417 M127.620901,370.447963 C125.395399,371.644587 125.524972,373.772306 127.620901,374.954955 M127.620901,374.954955 L151.994612,389 M352.970921,202.012237 L351.603401,201.173727 M362.949784,196.354041 L364.107185,195.51553 L365.156025,194.362579 L365.998249,193 M351.710211,217.840863 L352.340566,216.478284 L352.759051,215.010891 L352.970921,213.541752 M167.228182,343.301197 L158.086289,352.629622 M158.193099,352.629622 L157.140757,353.363319 M145.586007,360.073147 L127.515842,370.447963 M157.247567,353.363319 L154.726149,354.725898 M163.129126,355.566155 L172.271018,346.132916" id="path3225"></path>
                <path d="M245,202 L245,209" id="line3227"></path>
                <path d="M184,226.20462 L209.556897,211.945435 M245,196 L186.944828,228" id="path3229"></path>
                <path d="M187,254 L187,236" id="line3231"></path>
                <path d="M275,202 C274.695312,204.715254 273.965625,206.257627 272,208" id="path3233"></path>
                <path d="M365.250963,197.616279 L365.250963,204.313953 M355.279702,198.453488 L361.053273,195 M360.948331,211.637791 L355.073315,214.986628 M312.569961,239.581395 L264.718052,267 M319.4944,223.986628 L319.4944,230.684302 M258,265.953488 L258,259.151163 M264.924438,250.465116 L312.671406,222.835465" id="path3235"></path>
                <path d="M158.218215,356.289249 L158,356.393604 M170,345 L158.107289,356.290959" id="path3237"></path>
                <path d="M158,354 L158,355.56202" id="line3239"></path>
                <path d="M142,366 L127,374" id="line3241"></path>
                <path d="M157,354 L157,355.08002" id="line3243"></path>
                <path d="M127.960006,374 L127,374.60002" id="line3245"></path>
                <path d="M128,372 L128,373.55998" id="line3247"></path>
                <path d="M159.869785,389.2421 L172.356511,381.858918 M202.784598,367.619926 L212.020228,364.455705 M212.020228,364.559421 L212.857922,364.137525 M235,348.52737 L234.160556,348.210948 L233.111252,348 L231.957016,348 L230.905963,348.105474 L230.068268,348.52737 M230.068268,348.52737 L215.692794,356.756102 M152,389.2421 C154.060135,390.50603 157.807901,390.504272 159.869785,389.2421" id="path3249"></path>
                <path d="M208,364.206077 L208,364.851889 M230.219585,350 L230.219585,351.39926" id="path3251"></path>
                <path d="M184,266 L268.709076,206.370849 M268.707327,206.477768 C270.33083,205.445387 272.129279,202.194004 271.961331,200.27297 M271.96308,184.392897 L271.96308,183.656734 M236.062317,246.54428 L236.062317,251.592251 M271.96308,200.27297 L271.96308,184.287731 M332.109673,166.618081 L356.250535,152.52583 M356.250535,152.630996 L356.250535,152 M356.250535,257.27297 L356.250535,256.431642" id="path3253"></path>
                <path d="M178.291312,222.78643 L178.291312,221 M106,366.400668 L160.478663,398 M186.253833,254.908917 L186.253833,236.327251" id="path3255"></path>
                <path d="M284,337.739576 C283.401717,331.383619 275.668415,337.477015 276.011053,342" id="path3257"></path>
                <path d="M165.567898,200.195289 L164,199.250629 M276.593932,50.4141322 L288,56.9217928 M262.674693,50.5190944 L266.755763,48" id="path3259"></path>
                <path d="M235,1.70237337 C232.576577,0.0643733679 229.614414,-0.721626632 227,0.862373368" id="path3261"></path>
                <path d="M72.1619969,295.724772 L35.2226184,317 M27.4569536,303.165861 L56.4207845,286.397209 M24.0970793,126.256574 L22,127.409419 M41.6240448,112.528986 L228,5" id="path3263"></path>
                <path d="M108.800004,123 L107,123.959992" id="line3265"></path>
                <path d="M128,170.386174 L128,169.757254 M157.654157,154.874565 L157.654157,153.407086 M158.600567,154.245646 L158.600567,152.673346 M170.588417,141.876889 L170.588417,140.409409 M171.534827,141.247969 L171.534827,139.67567 M193.30224,128.669573 L193.30224,127.202093 M327.902671,75 L334,78.563879 M169.852321,175 L160.598542,169.654181 M131.258102,117.976188 L131.258102,116.508709 M153.025515,105.504359 L153.025515,103.932059" id="path3267"></path>
                <path d="M259,308.525813 L260.899577,308.105163 M260.899577,308.105163 L262.165962,308 L263.326814,308.208572 L264.171071,308.839547 M300.155744,405.694232 L298.257925,405.904557 M301,418 L299.100423,415.686424 M297.41191,405.904557 L298.361699,405.904557" id="path3269"></path>
                <path d="M261,309 L261.95796,309.96202" id="line3271"></path>
                <path d="M263,310 L248.205479,313.535714 M248.309932,313.5375 L248,313.214286" id="path3273"></path>
                <path d="M248,319 L248,326" id="line3275"></path>
                <path d="M184,344 L209.085027,330.216422 M266.257984,312.905325 C266.111655,310.405659 264.461966,309.702574 262.179925,310.106805 M266.257984,318.711392 L266.257984,312.803404 M262.179925,324.203057 C264.467192,323.278854 266.122107,321.198966 266.257984,318.709665 M247.235172,330.734666 L262.179925,324.101136" id="path3277"></path>
                <path d="M245,320 L245,327" id="line3279"></path>
                <path d="M217.138408,257.937355 L217.138408,266.455324 M239.512111,245 L217.034631,257.937355 M184.105536,343.976025 L184.738754,342.819026 L185.581286,341.87239 L186.425577,341.346481 M185.899654,347.341841 L185.266436,347.447022 L184.633218,347.447022 L184.105536,347.026295 M217.98094,262.353235 L217.032872,262.879144 M236.449798,251.835061 L230.856373,254.990513 M245,314.944109 L186.743945,346.815932 M186.849481,346.815932 L184,345.341634 M186.849481,381 L245,333.037123" id="path3281"></path>
                <path d="M389,365.965749 L381.877193,370.059295 M186,373 L186,354.524814 M186.942724,372.368474 L186.942724,354" id="path3283"></path>
                <path d="M370.513688,383.861207 L377.031753,373.120817 M385,375.355371 C382.434159,378.461773 378.594019,381.94385 375.172897,383.965758 C374.098624,384.646225 368.254782,388.243485 370.515412,383.859435 M373.620977,361.108095 L374.446943,361" id="path3285"></path>
                <path d="M370.32002,382.55802 L369,381" id="line3287"></path>
                <path d="M332.725806,289.548407 L332.725806,270.752506 M272.443548,326.92845 L187,386.888076 M275.798387,320.733153 C275.552016,323.407281 274.538575,325.25362 272.443548,326.92845 M275.798387,304.982397 L275.798387,320.733153 M359.982124,273.797652 L332.61922,289.548407 M359.982124,255.105005 L359.982124,273.797652 M332.725806,270.855761 L359.983871,255 M272.653226,318.949817 L272.653226,303.092307 M217.612903,316.744712 L239.83871,303.724087 M239.83871,303.829092 L239.83871,295.113674 M239.83871,295.216929 L217.509812,308.134299 M217.612903,308.134299 L217.612903,316.744712 M291.103091,427 L290.998253,426.57998 L291.20793,425.94995 L291.627285,425.111659 M367.949866,382.58287 L367.740188,382.162849 L367.949866,381.532819 L368.367473,380.797784 M395,363.470203 L385.561022,375.652537" id="path3289"></path>
                <path d="M273,303 L274.32202,303.84" id="line3291"></path>
                <path d="M332.043121,151.830814 L359.257249,136 M332.043121,170.385716 L332.043121,151.724227 M359.255505,154.659742 L331.936707,170.385716 M184.040131,227.63001 C183.757523,225.660768 185.003093,223.593676 186.656874,222.597698 M186.133526,228.573568 L185.505507,228.783248 L184.877489,228.676661 L184.35414,228.362141 M184.040131,227.31549 L184.144801,227.42033 M359.255505,136.10484 L359.255505,154.661489 M228.106085,259.815837 L239.305745,253.210928 M217.115764,266.104479 L222.872599,262.646512 M239.305745,253.315768 L239.305745,244.614062 M356.115413,152.877465 L359.257249,154.659742 M271.85803,302.06454 C274.056094,301.398807 275.013822,302.27422 275.207461,304.475856 M186.656874,340.752184 L271.85803,301.961448 M184.35414,383.315407 L184.877489,382.371849 L185.505507,381.534877 L186.133526,380.905838 M186.656874,386.25267 L185.819516,386.776869 L184.983903,386.776869 L184.355885,386.357509" id="path3293"></path>
                <path d="M273,185 L274.32,185.612 M273,200.3 L274.32,201.014" id="path3295"></path>
                <path d="M276.241886,186.640373 L276.241886,202.508303 M272.866306,184.32849 C275.067465,183.403736 276.008056,184.51239 276.241886,186.640373 M187,223 L272.866306,184.223404" id="path3297"></path>
                <path d="M185,267 L186.082,267.6" id="line3299"></path>
                <path d="M272,208 L186.210526,268.243342 M184,265.289203 L184.526316,264.339658 L185.157895,263.495618 L185.789474,262.864347 M186.315789,268.241584 L185.473684,268.663604 L184.633333,268.663604 L184.001754,268.241584" id="path3301"></path>
                <path d="M270,207 L271.438,207.84" id="line3303"></path>
                <path d="M262.95942,191.401091 L248,195 M258.909642,189.656165 L260.779569,189.110875 M260.779569,189.109058 L262.026188,189 L263.168921,189.327174 L264,189.872463" id="path3305"></path>
                <path d="M248,199.994647 L248,207 M261.283753,190 L262.105835,190.824159" id="path3307"></path>
                <path d="M294.118209,427.955021 L300.736159,417.371334 M308.828657,419.573286 C305.970627,422.899787 302.52593,425.684968 298.846567,428.058046 C297.815085,428.754778 291.81007,432.116203 294.11996,427.953275 M236.535562,301.808157 L217.203582,312.913957 M236.535562,301.808157 L239.582726,303.591022 M236.535562,296.780862 L236.535562,301.809903 M357.793433,272.367312 L360,273.626318 M332.680597,285.779834 L350.122985,275.61698 M187.152239,228.467973 L184,226.791626 M267.11403,195.045803 C267.094766,192.718125 265.115861,191.630246 263.014368,192.112195 M267.11403,200.914764 L267.11403,194.942777 M263.014368,206.465917 C265.054567,205.704576 267.117532,203.221487 267.114034,200.913018 M247.990448,213.066534 L263.014368,206.361146" id="path3309"></path>
                <path d="M313,410 L306,414" id="line3311"></path>
                <path d="M318,407 L309,419" id="line3313"></path>
                <path d="M293.32,426.558 L292,425" id="line3315"></path>
                <path d="M269,324 C270.582234,322.928814 272.133916,319.935593 271.990808,318" id="path3317"></path>
                <path d="M273,319 L274.32202,319.84" id="line3319"></path>
                <path d="M184,384 L269,325" id="line3321"></path>
                <path d="M270.243879,325 L271.508286,325.733521 M185,385.253521 L185.948305,385.672676" id="path3323"></path>
                <path d="M77.889649,309.956209 L80.3079444,308.509625 M50.65754,325.455317 L68.5318973,315.122578 M50.65754,330 C48.498598,328.872009 48.3969595,326.521311 50.65754,325.453595 M273.247612,302.723292 L273.247612,302" id="path3325"></path>
                <path d="M50,326.294588 L50,327.623104 M79.4244878,309.30868 L79.4244878,310.227897 M80.2609641,309 L80.2609641,310.330222" id="path3327"></path>
                <path d="M183.97806,400.538397 L271.734395,349.717013 M174.542083,405.9871 L175.483934,405.253621 M63.1958062,122.130613 L60.8909815,126.007575 M171.816134,222.093362 L171.816134,400.957528 M23.0422289,124.750182 L161.960781,204.90899 M259.149597,255.622098 L316.186584,222.617276 M259.149597,267.149948 L259.149597,255.519062 M352.041549,201.973327 L362,196.210275 M352.041549,213.49943 L352.041549,201.868544 M21.0484419,119.406261 L20,119.930175 M226.228522,1 L29.3328803,114.479725 M80.2871566,308.013476 L89.4086011,298.584775 M79.4466557,308.643919 L80.2854092,307.91044" id="path3329"></path>
                <path d="M292,62.5930233 L287.884774,65 M278.316872,62.6976744 L267,56" id="path3331"></path>
                <path d="M21.0053705,332.765498 C20.8462278,328.715542 24.2494326,322.850269 27.8257706,320.921386 M264.023223,52.7629324 L270.212299,49.093861 M285.00907,64.9232835 L263.916545,52.6581018 M291.198146,61.3590426 L284.902392,64.9232835 M270.212299,49.1986916 L291.198146,61.3590426 M264.023223,52.7629324 L262.762324,52.34361 L261.399992,52.0291181 L259.929234,51.9242875 M285.00907,66.3926592 L285.00907,64.8202 M295.290386,60.5203977 L293.821377,60.6252283 L292.459046,60.8348896 L291.198146,61.3590426 M270.212299,49.1986916 L270.212299,45.9489426 M146.607411,331.194786 L96.031521,360.337696 M95.7167333,364.111598 C93.7755425,365.394026 92.7384919,367.649631 92.3589979,369.877282 M250.380674,34 L249.54124,34.5241531 M303.686473,85.4718306 L304.001261,88.8264102 M140.521516,166.189655 L138.316253,169.963557 M265.80702,310.019002 L263.498577,307.817559 M265.80702,191.979733 L263.498577,189.673459 M290.463641,425.751998 L293.19355,429 M367.376769,381.408649 L370,384.763229 M217.013178,35.3610508 L217.223037,38.820461" id="path3333"></path>
                <path d="M28,337 L83,368" id="line3335"></path>
                <path d="M17.6085181,127 L16.4533256,127.524103 L15.1931155,127.838564 L12.4609102,127.838564 L11.2007001,127.524103 L10.1505251,127 M20.6540257,128.781949 C17.0431739,131.019866 10.6108518,131.019866 7,128.781949 M90.1756126,379.720479 L92.5910152,378.252992 M90.1756126,379.720479 L21.7042007,340.307971 M90.1756126,372.592685 L90.1756126,379.720479 M21.8074679,340.412791 L21.8074679,333.180177 M97,360.852789 C93.0530922,363.226973 90.214119,367.978836 90.1756126,372.592685" id="path3337"></path>
                <path d="M7,137 L7,300" id="line3339"></path>
                <path d="M74.4048972,249.851442 L74.7197202,250.061031 M99.7988631,259.282979 L100.325317,258.759005 L100.64014,258.130236 L100.745081,257.187082 M91.6152164,259.494315 L92.1399213,259.8087 M109.035418,257.920646 L105.782247,259.703905 M28.860516,236.334652 L172,318.911254 M71.2566681,206.992091 L72.5159598,209.507168 M61.7070398,166.226891 L61.7070398,169.789916 M83.2199388,186.137914 L83.2199388,182.365299 M149.017927,251.844291 L150.380411,254.357621 M96.757324,261.066238 L99.7988631,259.179931 M110.924355,257.920646 L109.874945,257.711056 L109.035418,257.920646 M132.752077,267.982699 L132.752077,268.087494 M107.776126,259.703905 C106.217753,259.027978 104.94272,260.034009 105.045912,261.695007 M131.491036,265.78026 L132.120682,266.409029 L132.540446,267.142594 L132.750328,267.980952 M74.5080892,232.981216 L131.491036,265.78026 M131.597726,265.886802 L113.757761,259.179931 M132.225623,268.087494 L132.752077,267.668314 M131.281154,268.716263 L132.225623,267.982699 M131.597726,268.925853 L131.177962,268.609722 M21.0931351,120.012358 L21.0931351,112.781513 M21.0931351,112.886307 L24.1364233,111 M19.9405334,128.500741 L20.1486664,126.928819 L20.4652383,125.461691 L21.1998251,124.308947 L22.0376038,123.470588 M21.0931351,120.012358 L21.1998251,121.479486 L21.619589,122.737024 L22.2474858,123.680178 L23.0870136,124.413742 M27.9160472,321.113693 C23.2024486,318.261526 20.216878,312.843632 19.9405334,307.385566 M25.5024049,323 C21.4376913,319.513824 18.0026235,313.83569 17.1071272,308.538309 M0.104940971,124.937716 L6.29645824,128.500741 M0.104940971,124.937716 L3.25491911,123.051409 M6.29645824,307.385566 L0,303.717746 M0.104940971,303.820794 L0.104940971,124.832921 M16.8972453,126.719229 L19.9405334,128.500741 M3.25491911,123.156204 L9.44643638,126.719229 M6.29645824,307.385566 C9.90467862,309.622936 16.3305641,309.622936 19.9405334,307.385566" id="path3341"></path>
                <path d="M100.439994,258 L99,258.84" id="line3343"></path>
                <path d="M113.35976,259.120732 L112.208103,259.831272 M110.951749,261.493815 L110.218876,261.020782 M110.321827,261.137556 L112.312799,259.712519 M113.672104,259.237506 L113.255064,259 M94.7238449,261.137556 C96.5019346,261.921326 97.3953418,261.082138 97.4459449,259 M92,259.831272 L94.7238449,261.137556" id="path3345"></path>
                <path d="M111,264 L111,268" id="line3347"></path>
                <path d="M172.346119,256.345711 C169.479979,259.526201 164.389897,261.157311 160.417064,259.058431 M151.760582,254.048593 C147.881,251.941018 148.489769,247.084206 151.127181,244.241066 M151.125421,254.676344 L150.808721,254.259003 M172.66282,255.928369 L172.240552,256.345711 M151.125421,244.242805 L169.388488,224" id="path3349"></path>
                <path d="M172.468476,257.489691 L172.259631,257.163144 M160.562614,259.979381 L160.35551,259.762887 M160.771458,260.410567 L160.771458,260.195876 M152.315007,255.649485 L152,255" id="path3351"></path>
                <path d="M92,250.709014 L95.3476923,249 M160,260 L151.318667,254.767924" id="path3353"></path>
                <path d="M75,240 L75,245.808946 M92.2472325,253.126174 L92.2472325,257" id="path3355"></path>
                <path d="M60.64903,201.604299 L61.7089947,200.237018 L63.2945326,199.080089 M33.8783069,187.197017 L61.9206349,171 M27,232 L27,198.974913 M80.015873,174.786316 L80.7566138,174.155263 M80.7566138,174.258686 L82.026455,173.417282 M63.2945326,199.081841 L82.2363316,188.038421 M82.2363316,188.143596 L83.0828924,187.512543 L83.6119929,186.776315 L83.8236332,186.040087" id="path3357"></path>
                <path d="M57,200 L41,191" id="line3359"></path>
                <path d="M27,200 C27.2244165,195.221239 29.9102334,190.575221 34,188" id="path3361"></path>
                <path d="M63,198.720651 L63,197.254068 M82.2112436,187.827781 L82.2112436,186.361198 M80.710477,174.628536 L80.710477,174" id="path3363"></path>
                <path d="M122,197.947587 L93.7898849,214.196104 M79.0579359,214.196104 L62.9677221,204.763229 M93.8926254,214.196104 C89.6558841,216.649106 83.3260218,216.553012 79.0561945,214.196104 M63.0704626,196.376898 L81.7727241,185.369838 M63.0704626,204.866311 C58.9730305,202.981133 58.9799959,198.256833 63.0704626,196.37515 M79.0579359,174.677266 L78.7427488,173.838633 L78.9517126,173 M83.1327303,182.434622 L78.953454,174.572437 M81.7727241,185.474667 L82.7130613,184.845692 L83.2354708,184.007059 L83.3416941,183.273255 L83.1327303,182.434622" id="path3365"></path>
                <path d="M62.3050847,170.285714 L62.3050847,169.214286 M62,170.392857 L62,169" id="path3367"></path>
                <path d="M62,171.823214 L63.08,171.073214 L63.68,170.216071 L63.68,169.251786 L63.2,168.394643 M63.2,168.394643 L62.72,167.858929 M62.84,167.964286 C61.272,165.892857 63.004,164.875 65,164 M62.718,171.392857 L62.118,170.214286" id="path3369"></path>
                <path d="M74.601998,234 L74,234.358" id="line3371"></path>
                <path d="M78,235 L75,236.802" id="line3373"></path>
                <path d="M74.601998,234 L74,234.35998" id="line3375"></path>
                <path d="M75.1690821,236.109756 L75.4879227,236.317073 M75.273591,233.207317 L74.6376812,233 L74.2125604,233.310976 L74,233.932927 M74,233.932927 L74,234.036585 M75.4861514,236.317073 L92.5972625,250 M80.9082126,236.419004 L96,248.443394 M74,234.034858 L74.1062802,234.760467 L74.531401,235.486077 L75.1690821,236.108028" id="path3377"></path>
                <path d="M75,241 L75,247" id="line3379"></path>
                <path d="M92.6834032,251.049647 L94.8139337,249.763892 M95.8791989,249.228904 L98.542362,251.154861 M98.2245579,258.216706 L98.2245579,259.928668 M75,236.497967 L76.0670407,235.855981 M76.0670407,235.962979 L77.8779916,235" id="path3381"></path>
                <path d="M97.440002,251 L96,251.718" id="line3383"></path>
                <path d="M97.5743243,251.10325 L98.4864865,251.83825 L99.1959459,252.89 L99.8040541,253.94 L100.209459,255.2 L100.310811,256.25175 M100.310811,256.25 L100.310811,257.82325 M92,251 L94.6368243,252.89" id="path3385"></path>
                <path d="M92,254 L92,257.941219 M99.5131493,257.174516 L98.2612476,257.83169" id="path3387"></path>
                <path d="M115.216833,193 L116.286733,193.208475 M95.7428673,248.244062 L94.5677603,248.869486 M92,249.600885 L92.5349501,250.017834 M95.4236805,248.035587 L95.7446505,248.244062 M95.3166904,251.894107 C96.8412981,252.847879 98.1091298,255.283558 98.0984308,257" id="path3389"></path>
                <path d="M94.358002,212.718 L94,212" id="line3391"></path>
                <path d="M73,209.376747 L73.207456,209.691008 M94.0550556,211.367062 L112,191.044898 M82.4392482,214.092397 C86.3307771,216.150802 91.2180948,214.479985 94.0567844,211.367062 M91.1524004,179 L73.207456,199.217411" id="path3393"></path>
                <path d="M82.2016949,214.184473 L82,214 M82.3050847,214.462721 L82.4067797,214.554958" id="path3395"></path>
                <path d="M73.2031978,199.176163 C70.3335966,201.982558 70.0250186,206.861047 73.7262113,209.013372 M97.9957846,211 L114,193" id="path3397"></path>
                <path d="M74.480004,210.722 L74,210" id="line3399"></path>
                <path d="M94.0772582,260.021772 L109.656695,269 M114.257334,193.208796 L114.571014,193 L114.886436,193 M74,209.077291 L82.6784781,214.088395" id="path3401"></path>
                <path d="M220.364676,306.541311 L220.364676,306.96121 M220.995352,306.331361 L220.995352,306.96121 M228.248123,303.182117 L228.248123,304.651765 M165.809474,312 L34,236" id="path3403"></path>
                <path d="M218,307.852727 L219.798266,308.181818 M220.432326,308.289091 C222.743124,309.063636 226.255114,308.683636 227.724021,306.434545 M219.798266,308.181818 L220.432326,308.290909 M227.724021,306.436364 L231,300 M227.724021,302.616364 L228.252405,301.634545 M222.968568,304.909091 L224.553719,304.690909 L225.925755,304.254545 L227.088199,303.490909 L227.72226,302.618182" id="path3405"></path>
                <path d="M132.59999,286 L132,286.23998" id="line3407"></path>
                <path d="M27,232 L27.2088398,233.467598 L27.5264868,234.727287 L28.1565161,235.775572 L28.998895,236.404543 M111.553786,270.788278 L110.816705,270.264136 M110.920247,270.367217 L108.077218,268.375476 M132.086773,282.946633 L131.665583,282.632147 M108.18427,268.480305 L107.341891,267.746506 L106.60481,266.80305 L105.974781,265.649936 L105.553591,264.498571 L105.446539,263.345457 M74.8032499,253.072268 L131.979721,285.88183 M131.979721,285.88183 L132.611505,286.091487 L133.032694,285.777001 L133.243289,285.252859 M131.769126,282.736976 L111.446734,270.68345 M133.245044,285.254606 L133.245044,284.938374 M133.245044,285.044949 L133.034449,284.31115 L132.716802,283.577351 L132.086773,282.94838" id="path3409"></path>
                <path d="M76.4634403,252.469388 L75.4218832,252.928571 M74.4750132,251 L74,251.183673 M74.4750132,251 L74,251.277041" id="path3411"></path>
                <path d="M114,259.61049 L111.291667,258.20671 M110.977431,261.444402 L108.164931,260.040622 M105.560764,262.200283 L105.560764,263.820028 M74,250.863864 L74.1041667,250.215966 L74.5208333,250 L75.1458333,250 M74,250.970048 L74,250.755881 M75.2482639,253.239491 L74.625,252.591593 L74.2083333,251.835712 L74,250.971847 M75.4565972,250.214166 L92.2274306,259.932639" id="path3413"></path>
                <path d="M131.280802,273.345056 L131.280802,279 M111.477364,264.548477 L111.477364,268.31844 M110.239542,259 L109,259.628327" id="path3415"></path>
                <path d="M131,270 L111,262.087912 M111.105354,262.195971 L113.799655,260" id="path3417"></path>
                <path d="M132,274 L132,280" id="line3419"></path>
                <path d="M204.065112,248.933103 L208.469995,249.672785 M250,220.296862 C246.923574,218.747053 242.342146,218.651951 239.094419,219.662849 M141.033336,249.884122 L157.182825,259.182976 M157.182825,259.182976 C161.435635,261.653864 167.791251,261.557001 172.077272,259.182976 M172.077272,259.182976 L172.391907,258.864208 M168.826049,225.051957 L140.928458,241.219282 M141.033336,241.219282 C136.89764,243.584502 137.081177,247.434368 141.033336,249.884122 M236.575595,224.521852 L228.919489,228.114591" id="path3421"></path>
                <path d="M141,243.716152 L141,242.22595 M237.250625,223.170873 L237.250625,222" id="path3423"></path>
                <polyline id="polyline3425" points="141 244 139.125 245.375956 138 247"></polyline>
                <path d="M161.682456,261.34458 L168,265 M86,218 L134.105263,245.572312" id="path3427"></path>
                <path d="M246,222.243294 C242.772781,221.706643 239.820659,222.011277 236.921836,223.624773 M233,252 L236.301151,249.979144" id="path3429"></path>
                <path d="M166,279 L34,203" id="line3431"></path>
                <path d="M232.24685,252.840951 L232.772795,252.215722 L233.612554,251.59223 M232.24685,249.297989 L232.772795,248.568556 M217.730771,261.696618 L218.993039,261.802559 L220.360496,262.010969 M220.99163,262.217642 C223.405717,262.663985 226.757739,262.679616 228.249669,260.341956 M220.360496,262.010969 L220.99163,262.217642 M228.249669,260.341956 L232.24685,252.735009 M228.249669,256.800731 L232.24685,249.192048 M220.99163,258.67468 C223.405717,259.121024 226.757739,259.136654 228.249669,256.800731 M220.360496,258.468007 L220.99163,258.67468 M217.730771,258.153656 L218.993039,258.259598 L220.360496,258.468007 M133.264021,268.263254 L132,268.888483 M133.264021,268.054845 L133.053643,268.680073 L132.736323,268.992687 L132.106942,268.888483 M162.296179,232 L141.048005,244.087751" id="path3433"></path>
                <path d="M220,260.525779 L220,259.098017 M227.886435,258.894051 L227.886435,257.464589 M220.630915,260.729745 L220.630915,259.300283 M231.882229,251.551275 L231.882229,250.123513 M233.247459,250.427762 L233.247459,249" id="path3435"></path>
                <path d="M334.796556,332.427726 L334.796556,338.198473 M333.222145,344.388911 L336.369217,342.500303 M334.796556,338.198473 L333.222145,344.388911 M333.222145,344.388911 L330.071574,342.500303 M330.176534,342.603477 L328.815544,335.785251 M337.943628,330.642291 L337.943628,336.414787 M334.796556,338.198473 L337.943628,336.309865 M337.943628,336.414787 L336.369217,342.603477 M272.135004,355.928657 C275.401032,357.951916 279.235597,357.201719 279.900348,352.887648 M144.082922,242.823757 L144.187883,242.92868 M97.3754007,261.498246 L105.142494,266.009921 M171.580882,210.925514 L162.55426,205.67938 M45.1049607,153.744402 L171.582632,226.665665 M45.1049607,138.110923 L45.1049607,153.744402 M45.1049607,249.53706 L171.792553,322.668168 M171.580882,331.061982 L45,258.035797 M45.1049607,273.879122 L171.582632,346.800384 M45.1049607,258.14072 L45.1049607,273.879122 M259.85285,207.884505 L264.051279,210.297727 M267.306811,353.202416 L272.135004,355.930406 M94.6464219,100.861623 L84.7783646,106.422525 M83.9404281,187.527756 L82.1543465,188.472061 M45.1049607,249.53706 L47.5190573,248.068143 M71.3451414,202.008835 L64.2078123,205.995897 M45.1049607,258.14072 L45.1049607,249.433886 M239.702141,43.2590722 L239.702141,42 M171.580882,210.925514 L171.580882,226.663916 M171.580882,331.061982 L171.580882,346.800384 M139.254729,249.014195 L144.186134,242.823757 M240.436866,223.096545 L221.648896,233.90533 M161.296481,233.064199 L144.082922,242.926931 M148.911116,247.335433 L142.29859,251.007726 M171.580882,210.925514 L172.105686,210.505823 M171.580882,331.061982 L171.790804,330.852137 M171.580882,346.800384 L171.790804,347.010229 M171.580882,226.663916 L171.790804,226.770587 M359.250655,260.345845 L359.250655,271.780668 M359.250655,151.6442 L359.250655,140.102705 M332.067577,271.780668 L356.206794,257.722778 M356.206794,257.8277 L359.250655,260.345845 M359.250655,260.345845 L331.960867,272.200359 M359.250655,271.780668 L331.960867,283.636931 M359.250655,140.207628 L356.626637,138.004252 M334.061831,151.121335 L359.248905,140.104454 M332.067577,163.502212 L359.250655,151.541026 M277.697922,356.455019 L279.902098,355.091024 M236.65828,224.462288 L235.923555,224.777056" id="path3437"></path>
            </g>
        </g>
    </g>
</svg>